<svg id="Layer_1" data-name="Layer 1" xmlns="http://www.w3.org/2000/svg" viewBox="0 0 160.07 17.74"><title>divider</title><path d="M63.49,10.48A137.69,137.69,0,0,1,47.66,11c-5.27-.07-10.53-.36-15.77-.53S21.42,10,16.2,10H12.28q-2,.06-3.91.07l-3.91.16c-1.3.07-2.61.17-3.92.22h0a.5.5,0,0,1-.13-1A85.53,85.53,0,0,1,16.17,7.7c5.29-.14,10.58,0,15.84.3L47.73,9c5.23.28,10.46.49,15.71.51a.5.5,0,0,1,0,1Z" fill="#fe9d12"/><path d="M97.12,9.35a153.92,153.92,0,0,1,15.53-1.2C117.85,8,123,8.09,128.23,8c2.59,0,5.19,0,7.77.09s5.16.22,7.73.32c5.15.22,10.27.41,15.42.49a.93.93,0,0,1,.09,1.86,111.75,111.75,0,0,1-15.61.5c-2.6-.09-5.19-.2-7.77-.38s-5.16-.46-7.73-.71a138.5,138.5,0,0,0-15.45-.89,98.65,98.65,0,0,0-15.41,1,.5.5,0,1,1-.15-1Z" fill="#fe9d12"/><path d="M80.93,6.13,77.36,9.95a7.4,7.4,0,0,1,3.23,3.18A25.83,25.83,0,0,1,84,9.35,10,10,0,0,1,80.93,6.13Z" fill="#91b08c"/><path d="M88.64,8.7a33.31,33.31,0,0,0-8.13,9c-2-3.4-4.23-5.89-7.69-7.48C75.45,6.73,78.94,4.41,80.7,0,82.38,4,84.65,6.87,88.64,8.7ZM86.18,9C84,7.4,82,5.81,80.83,3.18a65.52,65.52,0,0,1-5.46,6.6,22.54,22.54,0,0,1,5.23,5.89A24.51,24.51,0,0,1,86.18,9Z" fill="#fffbca"/></svg>