<?xml version="1.0" encoding="utf-8"?>
<!-- Generator: Adobe Illustrator 19.1.0, SVG Export Plug-In . SVG Version: 6.00 Build 0)  -->
<svg version="1.1" id="Layer_1" xmlns="http://www.w3.org/2000/svg" xmlns:xlink="http://www.w3.org/1999/xlink" x="0px" y="0px"
	 viewBox="0 0 179.3 87.9" style="enable-background:new 0 0 179.3 87.9;" xml:space="preserve">
<style type="text/css">
	.st0{fill:#FFFFFF;}
</style>
<g>
	<path class="st0" d="M18.9,42.7c-8,0-13.8-6.4-13.8-14v-0.1C5.1,21,11,14.5,19,14.5c8,0,13.8,6.4,13.8,14v0.1
		C32.7,36.1,26.9,42.7,18.9,42.7z M29.9,28.6c0-6.5-4.8-11.6-11.1-11.6c-6.4,0-11,5.2-11,11.5v0.1c0,6.5,4.8,11.6,11.1,11.6
		c6.4,0,11-5.2,11-11.5V28.6z"/>
	<path class="st0" d="M49.4,42.5c-3.9,0-8.2-1.6-11-3.9l1.5-2.1c3,2.3,6.2,3.5,9.6,3.5c3.6,0,6.5-2,6.5-5.1v-0.1
		c0-3.2-3.4-4.3-7.1-5.4c-4.4-1.3-9.2-2.6-9.2-7.4V22c0-4.3,3.6-7.4,8.9-7.4c3.2,0,6.9,1.2,9.5,3l-1.4,2.2c-2.5-1.6-5.4-2.7-8.3-2.7
		c-3.7,0-6.1,2-6.1,4.7v0.1c0,3,3.6,4.1,7.5,5.2c4.3,1.2,8.9,2.8,8.9,7.5v0.1C58.7,39.5,54.6,42.5,49.4,42.5z"/>
	<path class="st0" d="M78.8,42.7c-7.7,0-13.7-6.4-13.7-14v-0.1c0-7.5,6-14.1,13.7-14.1c5.1,0,8.2,2.3,10.8,5l-1.8,1.9
		c-2.3-2.4-5-4.4-9-4.4c-6.1,0-10.9,5.1-10.9,11.5v0.1c0,6.5,4.9,11.6,11.1,11.6c3.8,0,6.7-2,9-4.5l1.8,1.6
		C87,40.4,83.7,42.7,78.8,42.7z"/>
	<path class="st0" d="M115.4,42v-4.5c-1.8,2.6-5.2,5.1-10.3,5.1c-5,0-10.4-2.8-10.4-8.4v-0.1c0-5.6,4.8-8.7,11.8-8.7
		c3.7,0,6.3,0.5,8.9,1.2v-1.2c0-5.4-3.3-8.2-8.9-8.2c-3.3,0-6,0.9-8.4,2.2L97.2,17c3-1.4,5.8-2.3,9.5-2.3c6.9,0,11.2,3.6,11.2,10.5
		V42H115.4z M115.5,28.9c-2.3-0.6-5.3-1.2-9.1-1.2c-5.7,0-8.9,2.5-8.9,6.3v0.1c0,3.9,3.7,6.2,7.8,6.2c5.5,0,10.2-3.4,10.2-8.3V28.9z
		"/>
	<path class="st0" d="M141.5,17.6c-6.2,0-11.6,4.7-11.6,13.4v11h-2.6V15.1h2.6v7.6c2.1-4.8,6.6-8.3,11.9-8.1v2.8H141.5z"/>
	<path class="st0" d="M151.3,10.9h-1.4V6.4h3.5v3.9c0,3.3-1.2,5-4.4,6.2l-0.6-1.3C150.6,14.1,151.4,12.9,151.3,10.9z"/>
	<path class="st0" d="M163.8,42.5c-3.9,0-8.2-1.6-11-3.9l1.5-2.1c3,2.3,6.2,3.5,9.6,3.5c3.6,0,6.5-2,6.5-5.1v-0.1
		c0-3.2-3.4-4.3-7.1-5.4c-4.4-1.3-9.2-2.6-9.2-7.4V22c0-4.3,3.6-7.4,8.9-7.4c3.2,0,6.9,1.2,9.5,3l-1.4,2.2c-2.5-1.6-5.4-2.7-8.3-2.7
		c-3.7,0-6.1,2-6.1,4.7v0.1c0,3,3.6,4.1,7.5,5.2c4.3,1.2,8.9,2.8,8.9,7.5v0.1C173.1,39.5,169,42.5,163.8,42.5z"/>
</g>
<g>
	<g>
		<path class="st0" d="M41,72.7c0-1.3,0.2-2.4,0.7-3.4s1-1.9,1.8-2.6c0.8-0.7,1.7-1.3,2.7-1.7s2.1-0.6,3.3-0.6
			c1.2,0,2.3,0.2,3.4,0.6s2,0.9,2.7,1.6l-3.2,3.9c-0.3-0.4-0.7-0.7-1.1-0.9c-0.4-0.2-0.9-0.3-1.5-0.3c-0.4,0-0.9,0.1-1.2,0.2
			s-0.7,0.4-1,0.7c-0.3,0.3-0.5,0.7-0.7,1.1c-0.2,0.4-0.2,0.9-0.2,1.4s0.1,1,0.3,1.4c0.2,0.4,0.4,0.8,0.7,1c0.3,0.3,0.6,0.5,1,0.7
			c0.4,0.2,0.8,0.2,1.2,0.2c0.6,0,1.1-0.1,1.6-0.4c0.4-0.2,0.8-0.5,1-0.9l3.2,3.9c-0.7,0.7-1.6,1.3-2.6,1.7c-1,0.4-2.2,0.6-3.5,0.6
			c-1.2,0-2.3-0.2-3.3-0.6s-1.9-1-2.7-1.7c-0.8-0.7-1.4-1.6-1.8-2.6S41,73.9,41,72.7z"/>
		<path class="st0" d="M76.1,64.9h5.6l6.1,15.6h-5.7l-0.8-2.3h-5l-0.8,2.3H70L76.1,64.9z M78.8,70.3l-1.3,3.9h2.5L78.8,70.3z"/>
		<path class="st0" d="M109,70.9h4.8v4.3h-4.7v5.3h-5.2V64.9h10.6v4.4H109V70.9z"/>
		<path class="st0" d="M131.7,64.9h10.8v4.4h-5.8v1.3h5.5v4.1h-5.5v1.5h6.2v4.4h-11.1V64.9z"/>
	</g>
</g>
<rect x="31.5" y="53" class="st0" width="122.6" height="0.7"/>
</svg>
