<svg id="Layer_1" data-name="Layer 1" xmlns="http://www.w3.org/2000/svg" viewBox="0 0 125.2 176.06"><title>skull</title><path d="M459.07,277.36c-.14,9.64-2.28,17.82-7.92,24.82a2.23,2.23,0,0,0-.16,2.5,33.59,33.59,0,0,0,3.13,5.69c2.52,4.14,2.71,8.12-.55,12a16,16,0,0,0-3,6.69c-1.32,5.35-3.23,7-8.55,7.49-1.21.11-1.68.92-2.18,1.69-4.86,7.43-5.51,15.3-2.41,23.55a31,31,0,0,1,1.65,4.64,8.24,8.24,0,0,1-4.45,9.55,18.14,18.14,0,0,1-3.73,1.51,41.44,41.44,0,0,0-16.9,9.42c-7.89,6.92-16.74,8.78-26.7,5.43-3.28-1.1-5.86-3.29-8.43-5.46a45.7,45.7,0,0,0-16.5-9.21c-7.57-2.27-11.17-6.2-7.21-15.28,3.63-8.32,2.72-16.32-2-24a3.48,3.48,0,0,0-3.22-1.91c-3.67-.07-6.12-2.09-7.18-6a26,26,0,0,0-4.56-9.63c-2.15-2.72-1.67-5.78-.25-8.7,1.18-2.42,2.48-4.77,3.74-7.15.72-1.36.4-2.34-.58-3.6a34.68,34.68,0,0,1-7-18.17c-1.59-15.54,4.33-28.69,12.75-41.27,8.13-12.14,19.71-18.33,33.42-21.55,6.79-1.59,13.59-3.32,20.6-2.22,12,1.87,23.86,4.51,34,11.78,4.91,3.52,8.51,8.4,11.91,13.34,5.83,8.47,10.25,17.56,11.73,27.86C458.86,273.53,458.94,275.86,459.07,277.36Zm-37.3,69.54c1,2.11,2.73-.68,3.82.74-.8-2.52-2.36-1.22-3.72-.88-1-2.53-2.6-2.15-4.3-.87-2.21-2.55-2.47-2.6-5-1-2.93-2.52-3-2.53-5.68-.82-2.22-1.65-2.63-1.67-5.21-.17-1.36-2-3.09-2.71-5.36-1.2-1-1.38-2.37-.95-3.67-.81.58-1.33,1.67-1.27,2.81-1,.48.11.81.78,1.4.43,2.11-1.23,3.51.12,5,1.4a3.55,3.55,0,0,1,4.35-.44c.38.21.76.53,1.24.23,2.12-1.33,3.67-.19,5.23,1.35,1.54-1.72,3-1.3,4.51,0,.32.29.71.63,1.2.38,1.77-.92,2.95.17,4.13,1.34,1-.83,2.12-.56,3.27-.19a17.67,17.67,0,0,1,5.48-11.69c-3.47,1-4.09,4.32-5.82,6.71a14.54,14.54,0,0,1,3.9-8.62,3.2,3.2,0,0,0-1.52,1c-1.25,2-3.45,3-5.19,4.41-2.37,2-5.21,2.66-8.14,1a9.39,9.39,0,0,1-4.35-9.22c.51-3.49,3-6,6.69-7,2.18-.59,4.4-.2,6.7-.43-.34-1.37-.71-2.6-.15-3.87,1.76-.24,3.16.74,4.62,1.29,2.31-3.69,3.34-4.15,7.54-3.38,1.71-2.67,4.28-3.67,7.44-3.55a8.37,8.37,0,0,1,7.71,5.23,6.68,6.68,0,0,1-1.79,7.79c-2.62,2.43-5.67,3.66-9.25,2.4-1.31-.46-2.51-1.24-2.41-3,3.93-.53,4.67-1,4.28-2.88s-1.55-2-3.25-1.42a4.24,4.24,0,0,1-2.61,3.24,2.24,2.24,0,0,0-1.06,2.53c.37,2.5,4.2,6,6.94,6.38,3.52.48,5.56-.62,7.09-4.1a27.14,27.14,0,0,1,3.5-6.5c2.54-3.11,2.44-6.26.52-9.56-.45-.78-.88-1.57-1.35-2.33-3.51-5.57-4.41-11.62-3.62-18.09.59-4.86.66-9.74-1.75-14.25-.69-1.29-1.51-2.5-2.28-3.75,5.35,4.06,6.31,9.79,5.8,16.07,1.21-.44,1.1-1.84,2.27-2,.06,2.3-1.46,4.05-1.93,6.48,1.4-2,1.63-4.15,3.52-6-.66,4-2.58,7-3.64,10.87,2.48-3.16,6.32-11.45,6.53-13.75-1,.57-1.33,2-2.8,2a8.77,8.77,0,0,0-1.19-4.58c-2.47-3.66-3.35-7.48-1.23-11.81a7.46,7.46,0,0,1-2.34-2.28l-6.07,2.62,1.13-1.88c-.41-.58-.54-1.34-1.19-1.71-.83.63-1.13,1.67-2.14,2-.29-.79.33-1.18.51-1.71s.7-.92.4-1.57c-2.84,1.09-3.4,2.58-2.29,6,1.32.09,2.29-1,3.55-1.08a6.37,6.37,0,0,1-4.73,2.32c-.81-2.23-.21-4.34-.43-6.49-2-.65-3.53-1.77-3.6-4.11-2.11-.09-3.71-.91-4.13-2.93s.94-3.24,2.26-4.35c1.11-.94,2.39-1.69,3.87-2.72a26.08,26.08,0,0,1-11-2.36c-.83,3.85-4.92,3.61-6.69,6.1-1.11-1-.74-2.19-.76-3.4-3.08,2.57-4,5.85-2.49,8.87a7.38,7.38,0,0,0,8.28,3.94,4.61,4.61,0,0,0,3.91-3.29,4.53,4.53,0,0,0-1.09-4.59c-1.13-1.11-3.6-1.19-4.49-.06a1.89,1.89,0,0,0,.35,3c.53,0,.61-.31.72-.58a1.15,1.15,0,0,1,1.63-.7,1.16,1.16,0,0,1,.75,1,1.37,1.37,0,0,1-1.13,1.47,3,3,0,0,1-3.59-1,2.65,2.65,0,0,1,.49-3.65,3.94,3.94,0,0,1,3.51-1.1,4.73,4.73,0,0,1,4,4,4.47,4.47,0,0,1-2.07,5.24c-3.66,2.22-7.23,1.85-10.59-.63-.86,1.18-1.14,2.61-2.68,3.33.08-2.15-1.55-3.61-1.53-5.69s2.81-3,1.56-5.33c-1.8.72-2.36,2.18-2.6,3.86-.19,1.33-.3,2.68-.51,4a5.27,5.27,0,0,1-1.83,3.5,4.25,4.25,0,0,1-5.19-.12,3.21,3.21,0,0,1-.39-4.3,1.86,1.86,0,0,1,2.52-.84c1,.43,1.35,1.16.46,2.15-.83.26-2-1.19-2.61.53a2.89,2.89,0,0,0,2.5,2.48,2.56,2.56,0,0,0,2.56-1.51,6.68,6.68,0,0,0,.89-2.27,27.3,27.3,0,0,1,1.59-6.89c-.55-.89-2.05-.6-2.06-1.9l3.8-3.49c.83-.77,1.9-1.29,2.86-.72,1.28.76,2.24.1,3.09-.46a40.21,40.21,0,0,1,4.31-3c-2,0-3.86.07-5.11-1.61a8.26,8.26,0,0,1-2-5.29c1.51-.48,2.8.79,4.25.3.12-1.44.07-3,1-4.08,1.27-1.39.14-2.89.57-4.25a3.76,3.76,0,0,1,.93-1.5c1.16-1.13,2.4-2.19,3.72-3.37a5.92,5.92,0,0,1,.46,6.31c1.43,1.48,3.47,2.68,1.79,5.09.63-2.11-.49-3.24-2.29-3.8a4,4,0,0,0-4.67,2.58c-1.73,4.06.11,8.52,4.43,10.44-.06-1.75,0-3.44,1.2-4.79.69.21.79.75,1,1.24-1.7,1.07-1.57,2.8.31,4.32.11-.63-.61-1.24,0-2,1.05,1.14,1.52,3.11,3.76,2.89-.61-1.88-2.58-2.45-3.18-4.08,1.54.25,2.42,1.44,3.32,2.49,1.91,2.23,3.07,2.61,5.94,1.6-3.53-1.68-7-3.42-6.94-8.09,0-2.33,1.44-3.55,4.38-4.27.51-2.23.51-2.23,2.76-4C426,224.74,412,220.25,397.09,220a63.52,63.52,0,0,0-42.39,14.9,3.87,3.87,0,0,1,2.79,3.85c3.33.73,5,2.72,4.59,5.37a7.13,7.13,0,0,1-3.1,4.76c-1.23.85-2.56,1.56-4.17,2.52,2.76.2,5,.68,6.52-2.14a5.29,5.29,0,0,1,3.65-2.75c-.86,1.83-3.17,2.55-3.79,4.71,2.18,0,2.66-1.86,3.77-2.91.8.76-.49,1.43.18,2.2a4.21,4.21,0,0,0,1.11-4.51l-1.13.38a1.75,1.75,0,0,1,1.22-1.77,7.62,7.62,0,0,1,1.17,5c3.36-1.75,5.09-4.22,4.89-7.94-.15-2.87-1.27-4.73-3.36-5.22-2.39-.56-3.77.69-4.61,3.15-.47-2.42,1.16-3.27,2.27-4.41-.64-2-1.37-4.07.52-5.82-.07,2.07-1,4.39,1.76,6-.06-1.55-1.56-2.22-1.33-3.78l3.12,3.67c.38-2.31-1.69-2.89-2.08-4.36,2.7,1,3.4,2.1,3,4.79a1.64,1.64,0,0,0,.15,1.29,11.17,11.17,0,0,1,1.74,5.15c1.47.26,2.7-.74,4.26-.38a12.24,12.24,0,0,1-2.21,5.37c-1.25,1.82-3.37,1.14-5.05,1.8a10.71,10.71,0,0,1,3.49,2.19c.91.8,2,1.79,3.36,1.18,1.6-.71,2.76-.11,3.83.94a21.34,21.34,0,0,0,3.37,3.07c-.12,1.41-1.67,1.06-2.11,2.07,1.08,2.12,1.22,4.54,1.65,6.88a4.33,4.33,0,0,0,2.45,3.53,2.28,2.28,0,0,0,2.77-.87,1.64,1.64,0,0,0,.48-1.84c-.66-1.27-1.58.14-2.42-.16a1.13,1.13,0,0,1,.22-2,1.88,1.88,0,0,1,2.61.44,3.35,3.35,0,0,1-1.74,5.37,4.22,4.22,0,0,1-5.35-3.47c-.32-1.45-.35-3-.59-4.44-.28-1.7-.66-3.37-2.57-4.06a1.83,1.83,0,0,0-.28,1.77,2.05,2.05,0,0,0,.55.93c2.65,3,0,5.45-.54,8.24-1.36-.88-1.69-2.29-2.51-3.29-4.19,2.59-7.88,2.67-11,.33a5,5,0,0,1-.69-7.2,4.31,4.31,0,0,1,6.15-1,2.81,2.81,0,0,1,.86,4c-.85,1.39-2.31,1.51-3.79,1a1.3,1.3,0,0,1-.93-1.38,1.12,1.12,0,0,1,.73-1,1.17,1.17,0,0,1,1.56.49c.19.29.2.74.72.73a1.74,1.74,0,0,0,.89-2.27c-.28-1-1.15-1.29-2.09-1.4a3.36,3.36,0,0,0-4,3c-.61,3.75,1.83,6,6.26,5.75a7.23,7.23,0,0,0,6.46-5.36c.52-2.26-.11-6.13-3.11-7.32a3.18,3.18,0,0,1-.73,3.34c-1.54-2.87-6.18-2.23-6.47-6.44-3.51,2-7.28,2.34-11.4,2.58A18.85,18.85,0,0,1,361,255.9c1.22,1.2,2.62,2.41,2.09,4.4s-2.17,2.7-4.16,2.76c.11,2.48-1.65,3.39-3.43,4.21-.35,2.14.3,4.26-.49,6.47-4.22-.44-6.71-4.47-11-4.73l-2,2.22c1.06,2.65,1.6,5.33.45,8.07s-3.23,5-3,8.18c-1.43-.16-1.7-1.57-3.06-1.69a70.66,70.66,0,0,0,6.11,12.35c-.58-3.25-2.4-6.12-3-9.73,1.46,1,1.44,2.55,2.61,3.57-.3-1.58-1.27-2.76-1.06-4.24,1.18.21,1,1.64,2.11,2-.17-6.17.54-11.95,5.9-16-4.47,5.43-4.73,11.78-3.92,18.32a26.68,26.68,0,0,1-3.41,17.49,26.7,26.7,0,0,0-2.46,4.78,6,6,0,0,0,.38,5.61,60.61,60.61,0,0,1,4.9,8.8c1.68,3.62,5.05,4.69,8.67,3a10.33,10.33,0,0,0,4.85-5.12,2.23,2.23,0,0,0-.79-3.16,5.84,5.84,0,0,1-2.83-3.4c-2.18-.25-3,.16-3.1,1.66-.26,3.42,2.69,2.1,4.28,2.75-.46,2.21-1.88,3.28-4.53,3.46a9.46,9.46,0,0,1-9.08-6.07c-1-3.22.36-6.54,3.63-8.6,3.79-2.39,7.68-1.64,12.06,2.36,3.51-1.37,5.63.45,7.16,3.34,1.62-.59,3-1.7,4.75-1.23a8.23,8.23,0,0,1-.31,4.06,17.63,17.63,0,0,1,6.87.2,8.42,8.42,0,0,1,6.59,7.58c.23,4-2,7.8-5.3,9.08-3.12,1.2-6.69-.2-9.32-3.65a2.21,2.21,0,0,0-.33-.29c-.16-1.46-1-3,.8-4.75a5.77,5.77,0,0,0,.53,1.11c.89,1.13,1.92,1.73,3.21.58s.93-2.36,0-3.53a5.17,5.17,0,0,0-4.51-2,1.63,1.63,0,0,0-.51.22c0,.68,1,.74.75,1.63l-2.65-.89,2.16,1.73c-2.17.06-.06,1.21-.91,1.78-1.28-.51-2.39-1.89-4.58-1.35,3,1.07,4.38,3.31,5.78,5.48-.33,1.39-.77.34-1.07,0-2.27-2.47-2.26-2.49-3.3-2.68,2.73,3,4,5.58,4,8.71-.86-1.62-1.58-3-2.3-4.33a4.93,4.93,0,0,0-3.51-2.69,17.64,17.64,0,0,1,5.49,12c1.27-1.1,2.36-.49,3.51-.33,1.2-1.74,2.81-1.75,4.46-1,2.5-2.14,2.57-2.16,5.31-.84.69-.48,1.33-1.27,2-1.34a26.76,26.76,0,0,1,7.38-.17,6.21,6.21,0,0,0,2.72-.17,3.81,3.81,0,0,1-1.56,2c-2.17-1.53-2.36-1.52-5.22.12-2.24-1.75-2.38-1.72-5.57.91-2.07-2.25-3.61-.9-5.08,1.15-1.84-2.41-3.15-1-4.39.47-1.42-.37-2.91-1.18-3.6,1.19a3.37,3.37,0,0,1,3.45.15c1.25-1.9,2.82-1.93,4.43-1,2.27-2,2.58-2,5.61-.47,2.68-2.73,2.9-2.76,5.55-.59,2.33-2.44,2.75-2.47,5.06-.39,2.34-2.28,3.31-2.26,5.28.1,1.65-2.51,2.28-2.53,5.08-.17,2.34-2,2.72-1.93,5.11.44,2.56-2,2.78-2,5.78.6,2.73-1.73,3.45-1.57,5.72,1.26l.66,5.92A3.92,3.92,0,0,0,422,354a6.91,6.91,0,0,0,.11-1.26c-.08-.89-.2-1.78-.35-2.66-.48-2.74-.78-2.94-3.54-2.36C419,345.58,420.38,346.3,421.76,346.9ZM431.25,363c-.25,1,.51,1.3,1.18,1.76a4.25,4.25,0,0,1,1.68,5.49,2.37,2.37,0,0,1-2.55,1.42,2.74,2.74,0,0,1-2.57-1.85,1.91,1.91,0,0,1,1.16-2.58,1.26,1.26,0,0,1,1.8.85c.42,1.51-1.19,1-1.87,1.56.75.66,1.45,1.1,2.31.62a1.94,1.94,0,0,0,.94-2.12,3.15,3.15,0,0,0-2-2.53,2.73,2.73,0,0,0-2.92.58c-1.27,1-1.23,2.39-1,3.89a6,6,0,0,1-7.71,6.54c-1.25-.37-2.25-1.24-3.62-1.79a26.23,26.23,0,0,1,0,2.94c-.39,3.17-3.46,6.33-6.24,6.5s-5.49-2.19-6.27-5.19a3.73,3.73,0,0,1,2.46-4.44c1.65-.45,3.12-.26,3.78,2.18-2.08-.76-2.94.24-3,1.91-.05,1,.19,2.29,1.45,2.48,1.74.27,2.8-.9,3.43-2.34,1-2.2-.21-5.05-2.48-6.35s-4.43-.94-6.12,1.25a6.13,6.13,0,0,0,0,7.51,8.91,8.91,0,0,0,12.72,2,47.42,47.42,0,0,1,14.84-7.72,13.29,13.29,0,0,0,4-2,6,6,0,0,0,2.64-5.83c-.41-3.38-2.2-6.31-3.17-10.08-.8,2.31-.9,4.29-2.76,5.3-.13-.83.53-1.36.8-2a7.17,7.17,0,0,0,.36-5.24,2,2,0,0,0-2-1.47,1.26,1.26,0,0,0-1.28,1.05c-.23,1.18.85,1.2,1.46,1.65.1.08.13.26.2.41,0,.83-.53,1.25-1.31,1.08a2,2,0,0,1-1.56-2c-.24-2.08,1-3.1,2.8-3.64-.5-.84-1-1.52-1.32-2.25-.88-1.82-1.75-3.66-1.14-5.79.33-1.17.94-1.92,2.25-1.52,1.11.34,1.38,1.39.74,2.81-.27-.89,0-2.12-1.44-2.12-1.23,2.06-1,4.11,1,7,1.05,1.54,2.36,2.91,2.91,4.78-.44-2.65,0-5.26.19-7.86a38.48,38.48,0,0,1,1.85-7.65c-1.51,1.6-1.84,3.8-3,6.08-.43-2.29.6-3.83,1-5.51-.8.28-.49,1.52-1.66,1.45.23-2.31,1.67-4.12,2.58-6.62-2,1.71-2.13,4-3.7,5.82-.19-1.63.68-2.67.59-3.94l-1.8,4.24c-.81-.4,0-1.28-.85-1.59a8.57,8.57,0,0,0-1.65,4.51c-.82,5.33,0,10.74-.89,16.08-.27,1.69-.69,3.4-2.63,3.25s-3.94,1.76-6,.23c-.13-.09-.57.12-.79.28a3.67,3.67,0,0,1-4.42.11,3.8,3.8,0,0,1-4.8.82.82.82,0,0,0-1,.12c-1.6,1.28-3.2.85-4.59.06-3.89,1.59-7.51,1.21-11.41.2-1.26-.33-3,.59-4.76-.17-1.34-.57-3.22.86-4.79-.33-.4-.3-.78-.74-1.39-.41-1.72.93-3.17.16-4.54-.79-2.55,1.57-4.84-.41-7.26-.45-1,0-1.35-1.35-1.42-2.34-.32-4.45-.79-8.89-.83-13.36,0-2.67.16-5.55-2-7.82-.52.46.06,1.15-.71,1.55l-2.05-4.8c.17,2,1.24,3.05.87,4.7-1.37-1.9-1.75-4.12-3.64-6,.87,2.52,2.7,4.25,2.4,6.71-1-.12-.73-1.3-1.55-1.51.38,1.67,1.37,3.19.88,5.53-1.11-2.4-1.4-4.57-3-6a7.81,7.81,0,0,0,.44,1.47c2.22,6.87,2.85,13.74-.08,20.59-3.32,7.76-2.07,10.85,5.92,13.56a48,48,0,0,1,13.79,7.35,9.2,9.2,0,0,0,13.61-2.53,6.66,6.66,0,0,0-.6-7.37,5.1,5.1,0,0,0-6-1,5.21,5.21,0,0,0-3.09,5.45,3.64,3.64,0,0,0,1.71,2.77,2.08,2.08,0,0,0,3-.35c.83-1,.5-2.1-.14-3.12s-1.72,0-2.4-.7c.68-2.1,2.25-2.25,3.83-1.7,1.87.65,2.48,2.3,2.26,4.18a6.25,6.25,0,0,1-5.29,5.35c-2.86.32-5.3-1.39-6.52-4.44-.6-1.51-.49-3.15-.91-4.84-.77.45-1.33.82-1.93,1.1a6.74,6.74,0,0,1-4.55.76c-3.14-.73-5-3.51-4.57-7,.29-2.51-.69-4.11-2.69-4.39a2.66,2.66,0,0,0-2.88,1.68c-.52,1-.71,2,.24,2.88a1.52,1.52,0,0,0,2.36-.2c-.33-.58-1.34-.51-1.28-1.54a1.28,1.28,0,0,1,2.07-.64c1,.62.91,1.69.39,2.59a2.81,2.81,0,0,1-3.3,1.32,2.56,2.56,0,0,1-2-2.65c-.06-2.34,1.19-3.89,3.28-5-2.35-3.2-3.22-6.55-1.44-10.16.69-1.4,1.72-2.63,2.48-4,1-1.87,1.68-3.81.36-5.79-1.28,0-1.18,1.22-1.86,1.94-.33-1.54.16-2.47,1.45-2.72s1.77.85,2,1.9a6.41,6.41,0,0,1-.8,4.33c-.54,1.13-1.22,2.2-1.84,3.31,2.6,1.26,3.41,2.63,2.67,4.47a1.45,1.45,0,0,1-2.13,1,.76.76,0,0,1-.47-1.08c.32-.7,1.2,0,1.55-.6,0-1.62-.19-2.11-1.11-2.24-1.2-.16-1.78.65-2.14,1.59-.9,2.39.61,7.11,2.83,8.21a6.56,6.56,0,0,1,3.32,3.09c4-2.57,6.13-2.51,7.38.14-2.88,1-3.84,2.28-3.13,4.19.63,1.7,2.72,2.17,5.28,1.22a10.66,10.66,0,0,0,3-1.84,8.71,8.71,0,0,1,9.47-1.29c3.42,1.44,5.68,3.86,6.1,7.67.44,4-2.42,8.14-6.82,10.16-1,.44-2.11.51-2.94,1.37,6.32,3.94,18,3.85,23-.2a27.49,27.49,0,0,1-5.06-2.34c-4.91-3.36-6.16-9.28-2.86-13.68s9.83-4.88,14.2-1.26a8.35,8.35,0,0,0,5.35,2c1.6,0,2.28-1,2.52-2.34a2.64,2.64,0,0,0-1.53-3.16,9,9,0,0,0-1.73-.39c1.31-2.72,3.55-2.79,7.45-.21C427.1,364.79,429.51,364.32,431.25,363ZM442,252.35c-3.84.74-7.38,2.05-10.2,4.9a2.86,2.86,0,0,0-.73,3.29c.47,1.14,1.47,1.37,2.6,1.31.5,0,1-.15,1.47.28-.08,3.49,1.74,4.83,4.68,3.46,2.48-1.16,5.07-5.71,4.86-8.56-1.24.61-1.79,2.24-3.65,2.53l2.72-4.08c-1.92.48-3,1.79-4.94,1.93.94-1.58,2.78-1.86,3.73-3.48l-4,1.3C439.59,253.62,441.08,253.36,442,252.35Zm-84.36,9.76c.68-.45,1.37-.2,2-.28a2.41,2.41,0,0,0,2-3.6c-1.28-2.6-8.16-6.14-11.12-5.72,1.15.77,2.61,1.13,3.88,2.82L350.5,254l-.16.31,3.76,2.91-.27.47-5-2.45,2.73,4.1-.36.35-3.5-3a14.18,14.18,0,0,0,3.16,7.2c1.35,1.62,3,2.5,5.14,1.92C358,265.29,357.31,263.41,357.67,262.12Zm80.46-19.72.7-.68c1.75.86,3,2.44,5,3.76l-2-4c2,1,2.53,2.75,3.76,3.8a51.63,51.63,0,0,0-5.25-7.47c-.74-.9-1.46-1.82-2.78-1.33s-1.3,1.52-1.28,2.62a3.23,3.23,0,0,1-.19.79c-1.94.08-3.65.57-4.2,2.5A5.14,5.14,0,0,0,434,248a11.59,11.59,0,0,0,8.27,2.78c1.42-3.19-3-2.7-3.1-5,1.61.22,2.56,1.87,4.89,1.75Zm-89.45,3.52c2.1-1.67,3.52-3.49,5.61-4.35l.71.75-5.93,4.77.48.53c1.56-.08,2.52-1.72,4.14-1.79-.27,2.15-4.45,1.78-3.15,4.92a11.53,11.53,0,0,0,7.87-2.48c1.83-1.37,3-3.24,2.54-5.6-.46-2.19-2.42-2.59-4.37-2.79a10.44,10.44,0,0,0-.22-2c-.45-1.44-2-2-3-1a42.32,42.32,0,0,0-6.22,8.48c1.25-1.2,1.91-2.92,4-4.14Zm42.55,116.31c-1.92,1.71-3.77,1.87-5.4-.29-2,1.39-3.83,1.87-5.33-.35-2.66,2-3.15,2-5.51-.07-1.56,1.16-3,1.11-4.2-.77-.94.92-2.08.6-3.31.52.84,2.66,2.39,1.83,3.93,1.05,1.12,2.28,2.69,1.28,4.1.62,2.46,1.76,2.53,1.76,4.69.18,2.22,2.05,2.27,2.06,5.57,1,2.5,1.71,2.5,1.71,5.2.11A10.79,10.79,0,0,0,402,364.2c1.63,1.92,3.47,1.48,5.27-.22,2.2,1.55,4,.79,5.62-1.16,1.6,2.76,3.08.92,4.58,0,1.58,1.2,3,1.31,4.06-.55,2.43,1.26,2.81,1.16,3.58-.73-2.41-1.21-4.81,1.7-7.4-.07-1.69,2.41-3.56,1.76-5.38,0-1.62,2.37-3.51,2.25-5.61.89-1.75,1.81-3.5,1.12-5.17-.06A8.52,8.52,0,0,1,391.22,362.23Zm-46.45-99.36c-1.3-1.45-.31-3.33-1.68-4.7-.51,2.22-.39,4.38-1.46,6.31v-6.07c-1.15,1.44-1,3.31-2.47,4.74-.15-2.07.8-3.57.82-5.21-1.35,3.14-2.61,6.29-1.69,9.83a2.55,2.55,0,0,0,2.28,2.14c1.29.14,1.85-.76,2.36-1.71.26-.49.12-1.24,1-1.43.44.46.87,1,1.36,1.42a2.14,2.14,0,0,0,2.45.62,2.26,2.26,0,0,0,1.29-2.19,6.07,6.07,0,0,0-.16-1.78c-.67-2.21-1.44-4.4-2.13-6.6-.39-1.22-1.07-1-1.89-.48C344.47,259.4,345.45,261,344.77,262.86Zm103.2-.15c-.42-1.73.06-3.35-.06-4.93-1.09-.83-1.58-.4-1.92.72-.59,1.92-1.3,3.81-1.89,5.74a7.49,7.49,0,0,0-.3,2c0,1.09.17,2.16,1.31,2.63s1.85-.18,2.63-.81c.48-.39.63-1.2,1.48-1.21a6.88,6.88,0,0,1,.45.8c.52,1.3,1.1,2.62,2.84,2.22,1.55-.35,2-1.61,2.11-3.07a16.75,16.75,0,0,0-2-9.34c.15,2.15,1.28,3.62.45,5.41l-1.8-4.59c-.28,2.11.09,4.17-.59,6.23l-1.08-6.61C448.49,259.7,449.32,261.45,448,262.71ZM338.21,279.41c-.4-.14-.62-.16-.65-.24-.92-2.85-.54-5.9-1.29-8.84-1.7,6.33-1.41,12.55,2.37,15.36a27.44,27.44,0,0,1,2.23-5.62,10.85,10.85,0,0,0,.84-5.9c-.27-2.11-1.25-3.6-3.77-3.75A59.39,59.39,0,0,0,338.21,279.41Zm118.49-9c-.82,1.51-.57,3.11-.79,4.66-.48,3.33-.46,3.33-1.32,4.25-.19-3.07.84-6,.13-9-2.35.37-3.37,1.75-3.69,3.91a11.29,11.29,0,0,0,1.16,6.52,15.69,15.69,0,0,1,1.86,5.26C458.86,281.17,457.15,275.67,456.7,270.42ZM447,247c-2.67,2-3.41,4.54-2.07,6.66a4.49,4.49,0,0,0,6.46,1.44A53,53,0,0,0,447,247Zm-105.69,8.18c2.61,1.39,5.32.65,6.62-1.7,1.21-2.2.32-4.81-2.27-6.25A47.63,47.63,0,0,0,341.33,255.16Zm60,98.14a18.57,18.57,0,0,0-.41-6.64,2.3,2.3,0,0,0-2-1.87c-1.16-.11-1.45.89-1.73,1.71-.76,2.24-.46,4.51-.29,6.91A10.49,10.49,0,0,0,401.36,353.3Zm24-28.31c-2.5-.81-4.91-.92-7.12.83-2,1.57-2.07,3.74-1.66,5.93a3.72,3.72,0,0,0,3.48,3.28,3.55,3.55,0,0,0,4-2.43c-1.9.79-3.41.7-4.66-.74a3.21,3.21,0,0,1-.48-3.75C420.24,325.36,422.7,325,425.37,325Zm.35,8.36c1.36-1.71,2.64-3.31,5-4.09-2.16-.63-3.22,1-5.16,1.4,1.21-1-.78-2.51,1.38-3.05-1-.4-1.56.63-2.39.08l1.12-1.39c-2.71-.29-4.81.7-5.74,2.65a2.07,2.07,0,0,0,.58,2.79,1.86,1.86,0,0,0,2.77-.16c.45-.43.67-1.21,1.49-1.12C425.53,331.21,425.29,332.27,425.72,333.36Zm-57.06-.79c2.17,3,5.26,3.23,6.94.82a5.86,5.86,0,0,0-7.93-8.25c3.64.05,5.23.82,6.2,3a3.25,3.25,0,0,1-.44,3.75C372.18,333.34,370.67,333.36,368.66,332.56ZM355,316.06c-3.05-2.17-5.49-1.79-7.87,1s-2.58,6.07-.49,8.28c1.88,2,4.78,2.08,7.14.24-4.82-.12-6.82-1.68-6.6-5.15C347.41,317.26,350.41,315.5,355,316.06Zm84,9.56c2.71,1.8,5.58,1.59,7.38-.54,2-2.37,1.49-5.94-1.22-8.61-2.33-2.29-4.69-2.46-7.05-.52,4.54-.28,7.24,1.28,7.5,4.32C445.94,323.73,444.18,325.15,439,325.62Zm-48.82,28a34.2,34.2,0,0,1,.46-5.5,2.25,2.25,0,0,0-1.52-2.85c-1.34-.37-2,.82-2.42,1.84a11.85,11.85,0,0,0-.53,6.59A8.74,8.74,0,0,0,390.21,353.63Zm5.48-.2c0-2.07,0-4.06,0-6.06,0-1.09-.37-2.23-1.62-2.35s-1.91,1-2.24,2.09a15.53,15.53,0,0,0-.29,6.42A10.87,10.87,0,0,0,395.68,353.43Zm12.13.31c1.5,0,2.87.35,4.33-.06a9.7,9.7,0,0,0-1-6.52c-.46-.85-1-1.82-2.19-1.52s-1.52,1.34-1.48,2.45C407.56,349.87,407.69,351.64,407.81,353.74Zm-27.06.15a12.48,12.48,0,0,0,4-.21,25.46,25.46,0,0,0,.62-5.82,2.08,2.08,0,0,0-1.48-2.26c-1.06-.26-1.66.57-2.08,1.36A10.26,10.26,0,0,0,380.74,353.89Zm26-.58a11.94,11.94,0,0,0-.71-6.45c-.43-1-1.19-1.87-2.4-1.55a1.92,1.92,0,0,0-1.45,2c.13,2,.36,4,.55,6A7,7,0,0,0,406.75,353.31Zm-15.31,1.9c-.07,2.28,0,4.44,1.09,6.38.48.84,1.31,1.62,2.41,1.17a2,2,0,0,0,1.11-2.26c-.16-1.84-.35-3.68-.53-5.47C393.63,354.61,393.63,354.61,391.45,355.21Zm5.61-.19c-.61,3.73-.15,6.23,1.33,7.78,2.59-1,3.74-4.28,2.7-8a8,8,0,0,0-1.29-.11C398.91,354.78,398,354.91,397.05,355Zm37.11-33.18c-2.19.76-3.16,2.39-2.63,4.57a11.49,11.49,0,0,0,6.33,8,6.19,6.19,0,0,0,5.86.06C435.49,333.15,431.76,328.26,434.16,321.84Zm-21.85,33.54a7.85,7.85,0,0,0-4.57-.14l-.37,5.9c.86.88,2.07,1.37,3,.64C412.33,360.23,412.18,357.86,412.31,355.38Zm-32.88-1.67a19.76,19.76,0,0,1,.47-4.59c.25-1.23,0-2.26-1.4-2.59a2,2,0,0,0-2.58,1.54,12.1,12.1,0,0,0-.53,5.72A8,8,0,0,0,379.43,353.71Zm-30.26-19.26a5.28,5.28,0,0,0,.92.46c5.1,1.26,11.91-4.68,11.33-9.92-.16-1.48-.7-2.85-2.6-3.15C361.19,327.55,357.27,333.83,349.18,334.44Zm68.32,19.32a11.76,11.76,0,0,0-.69-6,1.91,1.91,0,0,0-2.52-1.25,1.81,1.81,0,0,0-1.34,2.24c.24,1.66.46,3.32.69,5A9.16,9.16,0,0,0,417.5,353.76Zm-32.77,1.45a9.14,9.14,0,0,0-4,0,8.87,8.87,0,0,0,.84,5.66,1.59,1.59,0,0,0,2,1c.82-.26,1.9-.57,1.81-1.65C385.23,358.62,385.52,356.88,384.73,355.22Zm18-.24c-.17,1.56-.31,3-.5,4.48-.14,1.11-.53,2.3,1.15,2.57a2.31,2.31,0,0,0,2.91-1.76,13.23,13.23,0,0,0,.22-5.37C405.23,355,404.1,354.43,402.71,355Zm-16.35.18a20.78,20.78,0,0,0,.48,5.29c.21,1.11.6,2.09,2,1.74,1.16-.29,2-.9,1.82-2.34s-.39-3.05-.6-4.68A9.32,9.32,0,0,0,386.37,355.15ZM415.61,362c1.87-1.88,1.6-4.24,2-6.53a7.1,7.1,0,0,0-3.94-.16C412.74,360.73,412.74,360.73,415.61,362Zm-40.27-6.37a19.22,19.22,0,0,0,.67,4.33c.34.91.58,2.05,1.88,1.75a2.29,2.29,0,0,0,2-2.58c-.13-1.24-.41-2.46-.62-3.68A8.25,8.25,0,0,0,375.34,355.61ZM370.85,354a2.92,2.92,0,0,0,3.13-.21c.17-1.42.34-2.81.5-4.21.1-.92.17-1.87-1-2.17s-1.86.5-2.14,1.46A11.32,11.32,0,0,0,370.85,354Zm-19.44-87.7c-.11,1.41,1.21,2.21,1.14,3.53-1.22-.33-1.38-1.66-2.38-2a3.8,3.8,0,0,0-1,1.85,6.47,6.47,0,0,0,4.74,2.86C354.85,269,354.29,267.65,351.41,266.28Zm18.76,56.56c3.52-.14,7.08-.09,9.25,3.24s1.14,6.68-.6,10.21c4.43-3.79,3.82-9.83-.84-12.43C375.49,322.46,372.85,322.73,370.17,322.83Zm52.5-.05c-4.43-.23-8.84-.19-11.13,4.59a7.45,7.45,0,0,0,2.21,8.6C410.28,328.25,412.83,322.23,422.68,322.78Zm-66.36-.69c.43-2.89,2.07-3.93,4.23-3.89,2.36.05,3.21,1.84,3.59,3.91.18-2.19-.18-4.26-2.18-5.47a3.6,3.6,0,0,0-4.36.62A3.83,3.83,0,0,0,356.31,322.09Zm72.42.36c.37-2.27,1-4,3.27-4.23,2.44-.27,3.88,1.11,4.72,3.71.41-3.36-1.35-5.6-4-5.68S428.63,318.34,428.74,322.45Zm-3.06,31.62a8.43,8.43,0,0,0-.44-4.74,1.35,1.35,0,0,0-1.65-.84c-.7.18-.82.74-.81,1.4,0,1.4,0,2.79,0,4.22A4.47,4.47,0,0,0,425.67,354.07ZM370,353.94c0-1.38,0-2.71,0-4,0-.64-.05-1.24-.75-1.44s-1.12.27-1.46.78a6.25,6.25,0,0,0-.63,4.86A3.33,3.33,0,0,0,370,353.94Zm3.92,1.75a4.06,4.06,0,0,0-2.82,0,7.69,7.69,0,0,0,.79,4.53c.3.61.69,1.24,1.51,1a1.41,1.41,0,0,0,1.08-1.7C374.36,358.31,374.17,357.06,374,355.69Zm44.93,0c-.19,1.3-.35,2.47-.54,3.65-.15.94.13,1.69,1.08,1.91s1.31-.58,1.59-1.26a8.15,8.15,0,0,0,.71-4.32A4,4,0,0,0,418.9,355.71Zm-49.07,12.6c-2.18,1.84-2.44,4-.88,5.72s3.87,2,5.41.45C370.37,374.12,369.22,372.64,369.83,368.31Zm53.06-.07c.47,1.75.59,3.27-.41,4.64s-2.49,1.5-4.53,1.58c3.29,1.45,5.16,1,6.41-1C425.44,371.68,425,370,422.89,368.24Zm.12-12.46c-.16,1.06-.3,2.14-.51,3.21a1.19,1.19,0,0,0,.64,1.47,1.15,1.15,0,0,0,1.53-.49,4.42,4.42,0,0,0,.86-4.27A3.21,3.21,0,0,0,423,355.78Zm-53.16-.13c-1-.13-2-.27-2.71.35a5,5,0,0,0,.56,3.38,1.52,1.52,0,0,0,1.89.8c.8-.29.83-.91.68-1.65C370.08,357.59,370,356.63,369.85,355.64Zm53.87-120.28c2.37-1.31,2.3-3.08,1.83-5.12-2.86,1.94-3.56,2.95-3.27,4.66l2.93-3.41C425.22,233.17,423.85,233.81,423.72,235.37Zm-49.07,20.21c-.36-2.83-1.47-4.22-3.35-5,.35.77,1.25,1.19,1.28,2.22-1.16.09-1.48-1.42-2.7-1.05C370.85,253.61,373,253.77,374.65,255.58Zm45.56-2.78c-.08-.8.84-1.14.6-1.92-2.08,1.52-2.44,2.19-2.2,4.22,1.29-1.38,3.44-1.5,4.3-3.43C421.69,251.43,421.37,252.9,420.2,252.8Zm-.59-7.32c0-2.67-1.94-2.26-3.55-2.74C416.05,245.48,418.73,244.24,419.61,245.48Zm-46.61,0c3.37-1.52,3.37-1.52,3.52-2.67C375,243.17,373.13,242.86,373,245.52Zm-5.39,74.54c.27.74-1.11,1.41,0,2.29a3.37,3.37,0,0,0,.92-3.37c-2.31.28-2.31.28-3.48,1.83A4.74,4.74,0,0,1,367.61,320.06Zm57.66,0a4.81,4.81,0,0,1,2.86,1A4,4,0,0,0,424.2,319a3.94,3.94,0,0,0,1.1,3.36C426.24,321.46,425.14,320.89,425.27,320Zm-10.6-66.62c-1.46-.92-2.23.31-3.15,1-.68.51-1.38,1-2.34,1.68,1.32.51,1.86.51,2.18.34C411.39,254.05,414,255,414.67,253.42Zm-31.65,3c-2.92-3.42-3.39-3.68-4.85-2.54a11.88,11.88,0,0,1,2.84,1.29C381.6,255.63,381.38,257.12,383,256.4Zm30.17,4.52c-1.49,2.39-1.33,3.42.76,5.58.09-1.08,1-1.9.25-3-.68.33,0,1.24-.77,1.45C412.44,263.82,412.78,262.53,413.19,260.92Zm-34.11,5.53c1.61-2.31,1.73-3,.72-4.87.26,1.21.39,2.26-.38,3.1-.74-.18-.1-1.06-1-1.23A3.11,3.11,0,0,0,379.08,266.45Z" transform="translate(-333.86 -217.93)" fill="#fffbca"/><path d="M396.69,303.27c3.7,7.39,9.42,13.71,11,22.15a9.38,9.38,0,0,1-.46,4.63c-1.21,3.84-6.35,6.53-9.74,1.83-.3-.42-.66-.81-1.09-1.33-1.41,1.09-2.62,2.41-4.35,3-2.42.81-4,.41-5.53-1.61a8.38,8.38,0,0,1-1.59-7.81,16.75,16.75,0,0,1,2.38-5.05,98,98,0,0,0,7.78-13.62A3.92,3.92,0,0,1,396.69,303.27Zm3,10a73.75,73.75,0,0,1,3,9.19,8.38,8.38,0,0,1,0,4.2c-.46,1.56-1.66,2.25-3.59,2.86,4.32.22,6.1-2,5.44-6.06C403.91,319.64,401.63,316.55,399.74,313.31Zm-6.23,16.26c-3.09-1.27-3.69-2.22-3.69-5.23a11.71,11.71,0,0,1,.78-3.93c.89-2.49,1.79-5,2.69-7.47a50.94,50.94,0,0,0-2.87,4.79,14.11,14.11,0,0,0-2.22,7.4C388.32,328.48,389.7,329.78,393.5,329.57Z" transform="translate(-333.86 -217.93)" fill="#fffbca"/><path d="M373.77,274.52c3-2.74,4.8-2.63,7.09.36,4-1.95,6-1.25,7,2.47,3.32.61,4,1.85,3,5.18,3.3,2.7,3.62,4.06,1.67,7.06,1.52,2.88,1.5,3.35-.29,5.88,1.9,3.19,1.73,4.15-1.15,6.63.08,3.2-.4,3.9-3.47,5.09-1,3.83-1.71,4.41-5.81,4.84-2.33,3.81-3.75,4.35-7.41,2.85-2.84,2.17-4,2.11-7-.39-3.93,1.61-5.45,1.27-6.92-1.59-4.59-.22-5.61-1-6.29-4.66-3.57-1.33-4-2-3.3-5.56-2.94-2.78-3.12-4.34-.85-7.24-1.32-3.5-1.21-4,1.29-6.42-.36-3.29.41-4.46,3.56-5.38.94-3.7,1.55-4.21,5.26-4.44,2.32-4.66,3.71-5.32,6.6-3.13C369.61,272.62,371,272.29,373.77,274.52Zm-5.83,37.29,0,0c0,1.65.52,2.92,2.28,3.39,2.15.58,2.86-1,3.69-2.59,1.34,1.17,2.42,2.78,4.46,1.76,1.75-.87,2-2.42,1.76-4.43a3.86,3.86,0,0,0,5.12,0c1.8-1.31,0-2.69,0-4.17,1.48.08,3,.55,4.24-.71,1.56-1.57-.28-2.61-.64-3.89,4-.44,4.17-1.17,1.56-5.73.87-.84,2.13-1.31,2.23-2.87s-1.45-2.07-2.33-3.17c1.22-.7,2.52-1.15,2.25-2.82-.33-2.1-1.92-2.54-3.76-2.74.79-1.47,2-2.66,1.11-4.29s-2.45-.15-3.74-.65c-.18-1.39,1.13-3.5-1.56-3.84-1.78-.22-2.91,1.26-4.39,1.87-.85-1.3-.58-3.42-2.93-3.21-1.87.16-2.36,2.11-3.77,2.84-2.28-3.54-3.46-3.24-6.56,1.66-.88-1-1.54-2.33-3.2-1.79-2.4.79-2,3-2.3,5.14-1.48-1.11-2.8-1.5-4.27-.49s-.73,2.68-.82,4c-3.65-.3-4.28.72-3.17,4.91-3,.7-4,2.83-.9,5.76-1.47.78-3,1.53-2.57,3.63.39,1.71,1.62,2,3.16,1.89-1.92,5.38-1.87,5.46,3.2,5.39-1.22,4.38-.05,5.41,5.36,4.71.83,3.58,2.31,4,5.14,1.53C367,312.51,367.47,312.17,367.94,311.81Z" transform="translate(-333.86 -217.93)" fill="#fffbca"/><path d="M405.22,307.22c-3.14-1.08-3.8-2-3.63-5.1-2.85-2.48-3-3.54-1.11-6.57-1.5-1.78-2.07-3.72-.31-5.72-2-3.36-1.66-4.75,1.52-7.12-.62-3.85-.14-4.7,3-5.33.86-3.31,2.8-4.69,7-2.5,2.58-2.95,4.21-3.06,7-.48,3.2-2,4.84-1.64,7,1.74,3-2.22,4.31-1.65,6.68,3,3.88.5,4.45,1,5.24,4.31,3.38,1.52,4,2.47,3.59,5.48,2.56,2.79,2.74,3.66,1.26,6.23,2.35,3.37,2.15,5.17-.81,7.35.76,3.71.12,4.82-3.13,5.49-1,4.13-2.07,5-6.12,4.8-2.17,3-3.45,3.35-7.19,1.68-2.9,2.49-4.35,2.59-7,.47-4,1.39-5.76.67-7.24-3C406.92,311.77,405.67,310.78,405.22,307.22Zm34.62-6.1c1.4.2,2.45.19,3-1.16.9-2.3-.65-3.37-2.3-4.34,2.51-2.33,2.94-4.17-1-5.78,1.5-3.61.73-4.86-3.05-4.92.3-4.23-1-5.22-5.17-3.74-.05-2-.1-3.95-2.32-4.86-1.82-.75-2.13,1.19-3.34,1.84-.85-1.3-1-3-2.67-3.71-2.16-.94-2.85.7-3.62,2.1-1.55-.84-2.07-2.66-3.84-2.87-2.42-.29-2.09,2-3,3.21-1.53-.78-2.71-2.15-4.54-1.87-2.66.41-1.1,2.59-1.53,4-1.26.08-2.67-1.07-3.56.46-1,1.69.39,2.93,1.13,4.44-1.64.14-3.14.28-3.67,2.1s.77,2.62,2,3.42c-3.1,2.7-3.09,3.3.09,6.2-.8,1.1-2.09,2-2,3.6.19,2.16,2.14,1.54,3.52,2-.45,1.22-2.09,1.91-1.05,3.44,1.17,1.72,2.85,1.2,4.57,1.12-.11,1.43-1.8,2.81-.1,4.13a4.05,4.05,0,0,0,4.94.3c.35,4.71,2.33,5.46,6.63,2.54.59,1.18,1,2.58,2.73,2.55,2.08,0,2.84-1.49,3.34-3.28,1.55,1.23,2.69,2.83,4.81,2.25,1.59-.44,1-1.93,1.32-3.06,1.73.33,3.34,1.18,5-.09,1.79-1.39.84-3,.38-4.59C441.35,307.16,441.73,306.55,439.84,301.11Z" transform="translate(-333.86 -217.93)" fill="#fffbca"/><path d="M395.81,247.07c2.53,5.14,6.95,7.62,10.45,11.64-4,2.23-6.51,5.44-8.57,9.72A40.24,40.24,0,0,0,387,258.28C391.69,255.71,394.15,252.08,395.81,247.07Zm1.57,18.88a27.23,27.23,0,0,1,5.75-7.58,79.16,79.16,0,0,1-7.19-7.44c-1.15,3.27-3.46,5.37-5.91,7.46A29.61,29.61,0,0,1,397.37,265.95Z" transform="translate(-333.86 -217.93)" fill="#fffbca"/><path d="M396.35,243.21c-1.78-5.36-3.93-10.45-3-16.13.22-1.41.56-3,2.44-3,2.07,0,2.55,1.71,2.73,3.26.48,4.28-.36,8.49-1.1,12.68C397.21,241,397.44,242.17,396.35,243.21Z" transform="translate(-333.86 -217.93)" fill="#fffbca"/><path d="M390.51,247.06c-3.64-3.65-7.84-5.86-12.09-8-1.13-.58-2.13-1.69-1.47-3.14s2.05-1.59,3.48-1.31C385.64,235.57,390.14,241,390.51,247.06Z" transform="translate(-333.86 -217.93)" fill="#fffbca"/><path d="M402.72,246.47c1-5.77,3.79-10,9.48-11.76a4,4,0,0,1,2.43-.14,2.11,2.11,0,0,1,1.06,3.66,2.76,2.76,0,0,1-.83.75A59.86,59.86,0,0,0,402.72,246.47Z" transform="translate(-333.86 -217.93)" fill="#fffbca"/><path d="M393.53,243.19a28.46,28.46,0,0,0-6.13-6.49,3.27,3.27,0,0,1-.84-1c-.59-1.05-1.83-2.22-.52-3.34s2.62-.35,3.57.68C392.24,235.83,393.85,239.12,393.53,243.19Z" transform="translate(-333.86 -217.93)" fill="#fffbca"/><path d="M399.62,243.19a12.63,12.63,0,0,1,4.56-10.65,2.19,2.19,0,0,1,2.89-.29c1,.86.4,1.92-.1,2.83a5.47,5.47,0,0,1-1.25,1.56A31.78,31.78,0,0,0,399.62,243.19Z" transform="translate(-333.86 -217.93)" fill="#fffbca"/><path d="M389.58,250.26c-3.47-.72-6.34-.34-9.22-.28-1.27,0-2.57-.15-2.65-1.73s1.21-2,2.58-2.15C383.93,245.73,386.74,247.2,389.58,250.26Z" transform="translate(-333.86 -217.93)" fill="#fffbca"/><path d="M404.14,250.13c2-3.16,6.33-4.86,9.62-3.91,1,.28,1.89.8,1.75,2A2,2,0,0,1,413.3,250C410.28,250,407.27,249.52,404.14,250.13Z" transform="translate(-333.86 -217.93)" fill="#fffbca"/><path d="M400.6,277.26c-1.85.93-2.43,2.53-3.74,3.56a22.82,22.82,0,0,0-3.63-3.62c1-1.25,2.43-2.13,2.86-4.25Z" transform="translate(-333.86 -217.93)" fill="#fffbca"/><path d="M394.3,286.29l1.61-2.39a5.59,5.59,0,0,1,2.64,2.26,8.07,8.07,0,0,1-2,3.08Z" transform="translate(-333.86 -217.93)" fill="#fffbca"/><path d="M396.32,339l-2.54-2.51,2.33-2,2.48,2.08Z" transform="translate(-333.86 -217.93)" fill="#fffbca"/><path d="M395.28,295a1.36,1.36,0,0,1,1.52-1.29,1.23,1.23,0,0,1,1.34,1.2,1.26,1.26,0,0,1-1.37,1.41A1.39,1.39,0,0,1,395.28,295Z" transform="translate(-333.86 -217.93)" fill="#fffbca"/><path d="M388.75,388.89c1.7-2.4,4.64-3.27,5.77-6,1.05-2.52,1.11-5.19,1.86-7.83.94,2.57.88,5.32,1.94,7.83,1.15,2.71,4,3.72,5.73,6-1.49,1.26-2.62.79-3.68-.18-1.73-1.59-2.41-3.74-3.13-5.87-.26-.77-.49-1.54-.79-2.51C394.85,388.36,392.8,390.77,388.75,388.89Z" transform="translate(-333.86 -217.93)" fill="#fffbca"/><path d="M396.41,384.14c.72,1.91,1.14,3.89,2.88,5.4a5.45,5.45,0,0,1-5.71.14A14.43,14.43,0,0,0,396.41,384.14Z" transform="translate(-333.86 -217.93)" fill="#fffbca"/><path d="M396.24,373l-1.9-2.41c.19-.74,1.25-.84,1.88-1.63l2.05,1.63Z" transform="translate(-333.86 -217.93)" fill="#fffbca"/><path d="M367.94,311.81c-1.22-.32-2.48-.54-3.66-1-5.38-2-9.42-5.22-10.46-11.21-1.09-6.26.76-11.71,5.6-15.69,5.92-4.87,13.06-6,20.52-5.24,5.18.51,7.78,4.78,8.54,9.92a20.12,20.12,0,0,1-7.32,19.23c-3.83,3.22-8.44,4-13.26,3.93Zm-2.76-17.1a13.31,13.31,0,0,0-4.64.06c-2.21.25-1.76,2.26-2.6,3.31-1.89,2.36.33,2.36,1.33,3.28-.59,1.66.17,2.4,1.85,2.21,3-.34,5-2.22,6.67-4.71-1.74-.29-2.72,1.19-4.22,1.14.4-1.1,1.64-1.11,2.21-2.18h-3.61c1.58-1.41,3.25-.75,5.18-1.11l-4-.75c.45-.89,1.86,0,1.89-1.23h1.56c-.93-.87-1.93-1.39-2.32-2.71,1.28.4,1.83,1.76,3.25,1.72-.85-1.28-2.19-2.1-2-3.91,1.32.75,1.33,2.59,2.85,3-.1-.93-.94-1.62-.52-2.56.91.18.7,1.3,1.61,1.59-.79-2.5-1.06-5.08-3.38-6.72l-.34,1.12c-2.78-.65-2.83-.61-3,2.52-.34.63-1.32.37-1.6,1.25C361.41,292.44,363.83,293.15,365.18,294.7Zm13.53-10.8c-1-.1-1.34.94-2.17.7-.56-.53-.36-1.54-1.24-1.81-1.27,0-1.67,1.05-2.2,1.71-.71.24-.64-.68-1.19-.56-1.67,1.72-2.67,6.37-1.47,6.84.4-.41.06-1.36,1-1.44.47.69-.18,1.66.69,2.34l1.93-3.77c.48,1.49-.46,2.45-.38,3.54.91-.09,1.09-1.42,2.12-1.3.1.93-.93,1.2-1,2C379.38,289,380.25,287.12,378.71,283.91Zm-11,16.56c-.54.61-1.07,1.22-1.61,1.82-2.22,2.44-2.17,2.83.54,4.58a1.56,1.56,0,0,1,.48.7c.51,1.21,1.37,1.28,2.35.66a2.08,2.08,0,0,1,1.63-.38,2.23,2.23,0,0,0,2.52-2.71c-.38-1.55-1-3-1.54-4.54-1.51.58-.41,2.28-1.44,3-.79-.73.06-1.59-.42-2.5L368.56,305c-.71-1.13.05-2,0-3-.92-.11-.71,1.33-1.68,1.15C366.81,302.15,367.67,301.59,367.71,300.47ZM378,304.89c1.83.3,3.28.06,2.59-2.31,2.19-.74,2.8-1.76,2-3-.73-1.06-5.16-2.28-6.7-1.82.09.86.92.85,1.43,1.21s1.32.27,1.47,1.08c-.56.59-1.37-.21-1.9.46.14.68,1.16.89,1.14,1.73-1.2.22-1.62-1.06-2.6-1.12,0,.48.64.72.29,1.33-1.11-.08-1.13-1.48-2-1.81.06,3.36,1.94,6.33,3.7,5.57ZM382.23,289c-3.12-.3-4.51,2.38-6.58,3.88,1.11,0,1.72-1.07,2.85-1.07.07,1.09-1,1.43-1.36,2.19,1.27.52,2.26-.8,3.58-.68-.8,1.47-2.32,1.39-3.5,2.07,1,.31,2-.22,3,.5L378.11,297c2.47-.44,4.29-.74,5.88-2.27-2.06-1.26,1.16-2.52-.07-3.79-.65-.57-1.39.12-2-.3C381.7,290.06,382.65,289.83,382.23,289Zm-7.71,6.81a2.57,2.57,0,0,0-2.69-2.39,3.28,3.28,0,0,0-3.2,3.09c.06,1.4.6,2.68,2.22,2.91C372.29,299.67,374.44,297.47,374.52,295.84Z" transform="translate(-333.86 -217.93)" fill="#fffbca"/><path d="M417.92,278.47a31.07,31.07,0,0,1,12.21,3.24A16.79,16.79,0,0,1,438.88,300c-1.46,7.09-9.41,12.5-17.2,11.69-11.74-1.22-20-12.14-17.32-23.68C406,281,408.73,278.33,417.92,278.47Zm1,10c.88,1,.92,2.43,2,3.19.68-.72,0-1.71.89-2.42l.43,2.54c.88-3.5.37-6.51-.92-7.63-.87-.76-1,.55-1.58.44-.62-.87-1.14-1.82-2.2-1.79-1.11.31-.62,1.61-1.55,1.93l-1.67-1c-2.08,2.39-.51,6.24,4,8.45-.4-.71-1.36-1.14-1.27-2.17.85,0,1.06,1.11,2,1C419,290.14,418.22,289.39,418.87,288.45Zm10.49,11.72c-1.66-.21-2.66-1.56-4.19-1.36a8.33,8.33,0,0,0,5.62,4.61c2.22.51,2.75.09,2.8-2.31.76-.43,1.87-.56,2-1.89-.51-.79-1.7-1.41-1.12-2.75.09-.2-.27-.67-.52-.92-1.09-1.08-4.76-1.27-6.18-.35.32.59,1.36-.2,1.54.86-1.13.25-2.37-.05-3.39.74,1.54.23,3.18-.38,4.76,1.13h-3.86C427.71,298.85,428.8,299,429.37,300.17Zm-8.67.29c-.63,1.7-1.34,3.24-1.75,4.84-.32,1.23,1.3,2.8,2.59,2.57a2.1,2.1,0,0,1,1.63.3c1.16.67,5.07-1.56,5.13-2.89a2,2,0,0,0-.31-1,16.86,16.86,0,0,0-3.93-4.5c.82,1.49,1.76,2.22,1.75,3.81l-1.88-2.25c0,1.44,1.07,2.45.44,3.75-1-.89-.83-2.39-1.79-3.37-.41.58.09,1.38-.59,1.89C421.45,302.63,421.75,301.36,420.7,300.47Zm-3.6-3c-2-.29-3.45.59-5,1-1.07.31-2.2.7-2.28,2.11s1.34,1.51,2.32,2c-.64,2.67,1.14,2.45,2.63,2.31.57.5.18,1.38,1,1.54,2.26-.87,3-2.19,3.41-5.84-1,.27-1,1.69-2,1.83-.54-.26.08-.67-.18-1-.84-.18-1.22,1.13-2.17.7.1-1,1.33-1.16,1.53-2.08-.78-.27-1.67.71-2.4-.19C414.8,298.93,416.39,299.08,417.1,297.47ZM425.6,295c3.86-1.44,6.31-3.81,5.83-5.35-.39-.6-1.34-.27-1.68-1,0-1.63.45-3.67-2.44-2.39-.83.37-.37-1.15-1.18-.86-1.58,1.62-3.36,5.76-2.54,6,.49-.27.38-1.28,1.29-1.19.19.85-.67,1.49-.32,2.3,1.26-.53,1.34-2.1,2.72-2.9-.09,2-1.45,2.94-2.3,4.24,1.28,0,1.83-1.29,3.08-1.5C427.75,293.62,426.71,294,425.6,295Zm-11.45-3.4,2.27,1.13c-2.15-3.06-3.94-4-6-3.34-.11.5.85.74.33,1.35-.68.23-1.52-.45-2.21.56-.32,1.19,2,2.24.32,3.72a10.48,10.48,0,0,0,5.46,1.79c-.45-.54-1.4-.28-1.47-1.31h3c-1.52-.8-3.22-.67-4-2.42,1.41.29,2.42,1.34,3.82.94C415.21,293.28,414.11,292.93,414.15,291.63Zm6.76,1.82c-1.12.29-2.56.43-2.63,2.26-.06,1.6,1.75,3.76,3.28,3.74s2.38-1.07,2.45-2.63A3.29,3.29,0,0,0,420.91,293.44Z" transform="translate(-333.86 -217.93)" fill="#fffbca"/><path d="M396.09,254.48l4.65,4.27a8.94,8.94,0,0,0-3.6,4.13,31.21,31.21,0,0,0-4.5-4.24A12.08,12.08,0,0,0,396.09,254.48Z" transform="translate(-333.86 -217.93)" fill="#fffbca"/><path d="M367.19,229.35c-1.89,1.76-1.16,3.78-.52,5.82-1.11,1.14-2.74,2-2.27,4.41.85-2.47,2.22-3.71,4.61-3.15,2.09.49,3.2,2.35,3.36,5.22.2,3.72-1.54,6.2-4.89,7.94a7.62,7.62,0,0,0-1.17-5,1.75,1.75,0,0,0-1.22,1.77l-.14.14a5.29,5.29,0,0,0-3.65,2.75c-1.49,2.82-3.76,2.34-6.52,2.14,1.6-1,2.94-1.67,4.17-2.52a7.13,7.13,0,0,0,3.1-4.76c.44-2.65-1.25-4.64-4.59-5.37a3.87,3.87,0,0,0-2.79-3.85A63.52,63.52,0,0,1,397.09,220c14.9.22,28.92,4.71,40.79,14.71-2.25,1.78-2.25,1.78-2.76,4-2.94.72-4.34,1.94-4.38,4.27-.09,4.68,3.41,6.41,6.94,8.09-2.87,1-4,.64-5.94-1.6-.9-1.05-1.79-2.23-3.32-2.49l-.94-1.13c-.17-.49-.27-1-1-1.24-1.18,1.35-1.27,3-1.2,4.79-4.32-1.92-6.16-6.38-4.43-10.44a4,4,0,0,1,4.67-2.58c1.8.57,2.91,1.7,2.29,3.8,1.68-2.41-.36-3.62-1.79-5.09a5.92,5.92,0,0,0-.46-6.31c-1.32,1.18-2.55,2.24-3.72,3.37a3.76,3.76,0,0,0-.93,1.5c-.43,1.36.7,2.85-.57,4.25-1,1.06-.91,2.64-1,4.08-1.45.5-2.73-.77-4.25-.3a8.26,8.26,0,0,0,2,5.29c1.25,1.68,3.13,1.64,5.11,1.61a40.21,40.21,0,0,0-4.31,3c-.85.56-1.81,1.22-3.09.46-1-.57-2,0-2.86.72l-3.8,3.49c0,1.3,1.51,1,2.06,1.9a27.3,27.3,0,0,0-1.59,6.89,6.68,6.68,0,0,1-.89,2.27,2.56,2.56,0,0,1-2.56,1.51,2.89,2.89,0,0,1-2.5-2.48c.58-1.72,1.78-.27,2.61-.53.89-1,.52-1.72-.46-2.15a1.86,1.86,0,0,0-2.52.84,3.21,3.21,0,0,0,.39,4.3,4.25,4.25,0,0,0,5.19.12,5.27,5.27,0,0,0,1.83-3.5c.2-1.33.32-2.67.51-4,.24-1.67.8-3.14,2.6-3.86,1.26,2.38-1.54,3.38-1.56,5.33s1.61,3.54,1.53,5.69c1.54-.73,1.82-2.15,2.68-3.33,3.37,2.48,6.93,2.85,10.59.63a4.47,4.47,0,0,0,2.07-5.24,4.73,4.73,0,0,0-4-4,3.94,3.94,0,0,0-3.51,1.1,2.65,2.65,0,0,0-.49,3.65,3,3,0,0,0,3.59,1A1.37,1.37,0,0,0,424.9,261a1.16,1.16,0,0,0-.75-1,1.15,1.15,0,0,0-1.63.7c-.12.27-.19.57-.72.58a1.89,1.89,0,0,1-.35-3c.89-1.13,3.35-1,4.49.06a4.53,4.53,0,0,1,1.09,4.59,4.61,4.61,0,0,1-3.91,3.29,7.38,7.38,0,0,1-8.28-3.94c-1.47-3-.59-6.3,2.49-8.87,0,1.21-.35,2.43.76,3.4,1.77-2.49,5.85-2.25,6.69-6.1a26.08,26.08,0,0,0,11,2.36c-1.48,1-2.75,1.78-3.87,2.72-1.32,1.12-2.65,2.43-2.26,4.35s2,2.84,4.13,2.93c.07,2.34,1.58,3.46,3.6,4.11.22,2.14-.38,4.26.43,6.49a6.37,6.37,0,0,0,4.73-2.32l0,0,6.07-2.62a7.46,7.46,0,0,0,2.34,2.28c-2.11,4.33-1.24,8.15,1.23,11.81a8.77,8.77,0,0,1,1.19,4.58c1.47,0,1.84-1.46,2.8-2-.21,2.3-4,10.59-6.53,13.75,1.06-3.89,3-6.9,3.64-10.87-1.89,1.86-2.12,4-3.52,6,.47-2.42,2-4.18,1.93-6.48-1.18.21-1.06,1.6-2.27,2,.51-6.28-.45-12-5.8-16.07.76,1.25,1.59,2.46,2.28,3.75,2.41,4.52,2.34,9.4,1.75,14.25-.78,6.47.11,12.52,3.62,18.09.48.76.9,1.55,1.35,2.33,1.92,3.3,2,6.45-.52,9.56a27.14,27.14,0,0,0-3.5,6.5c-1.53,3.49-3.57,4.58-7.09,4.1-2.74-.37-6.56-3.89-6.94-6.38a2.24,2.24,0,0,1,1.06-2.53,4.24,4.24,0,0,0,2.61-3.24c1.7-.57,2.89-.35,3.25,1.42s-.35,2.35-4.28,2.88c-.11,1.73,1.09,2.51,2.41,3,3.58,1.26,6.63,0,9.25-2.4a6.68,6.68,0,0,0,1.79-7.79,8.37,8.37,0,0,0-7.71-5.23c-3.16-.12-5.73.88-7.44,3.55-4.2-.77-5.23-.31-7.54,3.38-1.46-.55-2.86-1.53-4.62-1.29-.55,1.27-.18,2.5.15,3.87-2.3.22-4.52-.16-6.7.43-3.65,1-6.18,3.54-6.69,7a9.39,9.39,0,0,0,4.35,9.22c2.93,1.66,5.76,1,8.14-1,1.74-1.44,3.94-2.37,5.19-4.41a3.2,3.2,0,0,1,1.52-1,14.54,14.54,0,0,0-3.9,8.62c1.74-2.39,2.36-5.69,5.82-6.71a17.67,17.67,0,0,0-5.48,11.69c-1.15-.37-2.23-.64-3.27.19-1.18-1.17-2.36-2.27-4.13-1.34-.49.26-.87-.09-1.2-.38-1.48-1.32-3-1.74-4.51,0-1.56-1.54-3.12-2.68-5.23-1.35-.47.3-.85,0-1.24-.23a3.55,3.55,0,0,0-4.35.44c-1.46-1.28-2.87-2.63-5-1.4-.6.35-.93-.32-1.4-.43-1.13-.25-2.23-.32-2.81,1l0,0a6.21,6.21,0,0,1-2.72.17,26.76,26.76,0,0,0-7.38.17c-.71.07-1.35.86-2,1.34-2.74-1.31-2.81-1.3-5.31.84-1.65-.8-3.25-.79-4.46,1-1.14-.15-2.23-.76-3.51.33a17.64,17.64,0,0,0-5.49-12,4.93,4.93,0,0,1,3.51,2.69c.72,1.36,1.44,2.71,2.3,4.33,0-3.13-1.23-5.71-4-8.71,1,.19,1,.21,3.3,2.68.3.32.74,1.38,1.07,0l0,0a2.15,2.15,0,0,1,.33.29c2.63,3.45,6.2,4.84,9.32,3.65,3.33-1.28,5.53-5,5.3-9.08a8.42,8.42,0,0,0-6.59-7.58,17.63,17.63,0,0,0-6.87-.2,8.23,8.23,0,0,0,.31-4.06c-1.78-.46-3.13.64-4.75,1.23-1.53-2.89-3.66-4.71-7.16-3.34-4.38-4-8.27-4.75-12.06-2.36-3.27,2.07-4.67,5.39-3.63,8.6a9.46,9.46,0,0,0,9.08,6.07c2.64-.18,4.06-1.25,4.53-3.46-1.59-.65-4.54.67-4.28-2.75.11-1.5.92-1.91,3.1-1.66a5.84,5.84,0,0,0,2.83,3.4,2.23,2.23,0,0,1,.79,3.16,10.33,10.33,0,0,1-4.85,5.12c-3.62,1.7-7,.62-8.67-3a60.61,60.61,0,0,0-4.9-8.8,6,6,0,0,1-.38-5.61,26.7,26.7,0,0,1,2.46-4.78,26.68,26.68,0,0,0,3.41-17.49c-.81-6.54-.56-12.89,3.92-18.32-5.36,4-6.07,9.79-5.9,16-1.07-.35-.93-1.78-2.11-2-.2,1.48.76,2.66,1.06,4.24-1.17-1-1.15-2.6-2.61-3.57.59,3.6,2.41,6.47,3,9.73a70.66,70.66,0,0,1-6.11-12.35c1.36.11,1.62,1.53,3.06,1.69-.27-3.17,1.83-5.48,3-8.18s.61-5.42-.45-8.07l2-2.22c4.31.26,6.79,4.29,11,4.73.79-2.21.13-4.33.49-6.47,1.77-.82,3.54-1.73,3.43-4.21,2-.05,3.62-.7,4.16-2.76s-.87-3.2-2.09-4.4a18.85,18.85,0,0,0-4.27-2.79c4.12-.24,7.88-.54,11.4-2.58.29,4.22,4.94,3.57,6.47,6.44a3.18,3.18,0,0,0,.73-3.34c3,1.19,3.63,5.06,3.11,7.32a7.23,7.23,0,0,1-6.46,5.36c-4.43.24-6.87-2-6.26-5.75a3.36,3.36,0,0,1,4-3c.94.11,1.81.4,2.09,1.4a1.74,1.74,0,0,1-.89,2.27c-.52,0-.53-.43-.72-.73a1.17,1.17,0,0,0-1.56-.49,1.12,1.12,0,0,0-.73,1,1.3,1.3,0,0,0,.93,1.38c1.47.53,2.94.41,3.79-1a2.81,2.81,0,0,0-.86-4,4.31,4.31,0,0,0-6.15,1,5,5,0,0,0,.69,7.2c3.08,2.35,6.78,2.26,11-.33.82,1,1.14,2.41,2.51,3.29.56-2.79,3.19-5.27.54-8.24a2.05,2.05,0,0,1-.55-.93,1.83,1.83,0,0,1,.28-1.77c1.91.69,2.29,2.36,2.57,4.06.24,1.48.27,3,.59,4.44a4.22,4.22,0,0,0,5.35,3.47,3.35,3.35,0,0,0,1.74-5.37,1.88,1.88,0,0,0-2.61-.44,1.13,1.13,0,0,0-.22,2c.84.3,1.76-1.11,2.42.16a1.64,1.64,0,0,1-.48,1.84,2.28,2.28,0,0,1-2.77.87,4.33,4.33,0,0,1-2.45-3.53c-.43-2.35-.56-4.76-1.65-6.88.44-1,2-.66,2.11-2.07a21.34,21.34,0,0,1-3.37-3.07c-1.08-1-2.24-1.65-3.83-.94-1.37.61-2.45-.38-3.36-1.18a10.71,10.71,0,0,0-3.49-2.19c1.68-.67,3.8,0,5.05-1.8a12.24,12.24,0,0,0,2.21-5.37c-1.56-.36-2.79.64-4.26.38a11.17,11.17,0,0,0-1.74-5.15,1.64,1.64,0,0,1-.15-1.29c.38-2.69-.32-3.78-3-4.79C368.2,230.32,367.92,229.61,367.19,229.35Zm29.5,73.91a3.92,3.92,0,0,0-1.6,2.17,98,98,0,0,1-7.78,13.62,16.75,16.75,0,0,0-2.38,5.05,8.38,8.38,0,0,0,1.59,7.81c1.55,2,3.11,2.42,5.53,1.61,1.73-.58,2.94-1.9,4.35-3,.43.52.78.91,1.09,1.33,3.39,4.7,8.53,2,9.74-1.83a9.38,9.38,0,0,0,.46-4.63C406.11,317,400.39,310.66,396.69,303.27Zm-22.91-28.75c-2.79-2.23-4.16-1.9-7,1.57-2.89-2.19-4.28-1.54-6.6,3.13-3.71.22-4.32.74-5.26,4.44-3.14.92-3.91,2.09-3.56,5.38-2.5,2.4-2.61,2.92-1.29,6.42-2.27,2.9-2.09,4.46.85,7.24-.68,3.54-.27,4.23,3.3,5.56.68,3.68,1.7,4.43,6.29,4.66,1.47,2.85,3,3.2,6.92,1.59,3,2.5,4.18,2.57,7,.39,3.67,1.5,5.08,1,7.41-2.85,4.1-.43,4.8-1,5.81-4.84,3.06-1.19,3.55-1.9,3.47-5.09,2.88-2.48,3-3.43,1.15-6.63,1.78-2.53,1.81-3,.29-5.88,1.95-3,1.63-4.36-1.67-7.06,1-3.33.28-4.57-3-5.18-1-3.72-3-4.42-7-2.47C378.58,271.89,376.81,271.78,373.77,274.52Zm31.45,32.7c.45,3.56,1.7,4.56,5.85,4.74,1.48,3.65,3.24,4.37,7.24,3,2.69,2.12,4.14,2,7-.47,3.74,1.66,5,1.36,7.19-1.68,4,.16,5.1-.67,6.12-4.8,3.26-.67,3.89-1.78,3.13-5.49,3-2.18,3.16-4,.81-7.35,1.48-2.57,1.3-3.45-1.26-6.23.41-3-.21-4-3.59-5.48-.78-3.34-1.36-3.81-5.24-4.31-2.37-4.63-3.65-5.2-6.68-3-2.2-3.38-3.84-3.78-7-1.74-2.82-2.57-4.45-2.46-7,.48-4.22-2.19-6.16-.81-7,2.5-3.18.64-3.67,1.48-3,5.33-3.19,2.37-3.49,3.76-1.52,7.12-1.76,2-1.19,3.94.31,5.72-1.94,3-1.74,4.09,1.11,6.57C401.42,305.19,402.08,306.14,405.22,307.22Zm-9.42-60.15c-1.66,5-4.12,8.64-8.76,11.21a40.24,40.24,0,0,1,10.63,10.14c2.07-4.27,4.55-7.48,8.57-9.72C402.75,254.7,398.34,252.22,395.81,247.07Zm.54-3.86c1.09-1,.86-2.18,1-3.16.73-4.19,1.57-8.4,1.1-12.68-.17-1.55-.66-3.25-2.73-3.26-1.88,0-2.22,1.56-2.44,3C392.42,232.76,394.57,237.85,396.35,243.21Zm-5.84,3.85c-.37-6.1-4.87-11.49-10.08-12.49-1.43-.27-2.82-.14-3.48,1.31s.34,2.57,1.47,3.14C382.67,241.19,386.87,243.4,390.51,247.06Zm12.21-.58A59.86,59.86,0,0,1,414.86,239a2.76,2.76,0,0,0,.83-.75,2.11,2.11,0,0,0-1.06-3.66,4,4,0,0,0-2.43.14C406.51,236.5,403.73,240.7,402.72,246.47Zm-9.19-3.29c.32-4.06-1.29-7.35-3.93-10.19-1-1-2.36-1.72-3.57-.68s-.06,2.29.52,3.34a3.27,3.27,0,0,0,.84,1A28.46,28.46,0,0,1,393.53,243.19Zm6.09,0a31.78,31.78,0,0,1,6.1-6.55,5.47,5.47,0,0,0,1.25-1.56c.5-.9,1.15-2,.1-2.83a2.19,2.19,0,0,0-2.89.29A12.63,12.63,0,0,0,399.62,243.19Zm-10,7.07c-2.84-3.07-5.65-4.54-9.29-4.17-1.36.14-2.66.47-2.58,2.15s1.38,1.76,2.65,1.73C383.23,249.92,386.1,249.54,389.58,250.26Zm14.56-.13c3.13-.61,6.15-.15,9.16-.16a2,2,0,0,0,2.21-1.77c.14-1.18-.78-1.69-1.75-2C410.47,245.27,406.16,247,404.14,250.13Zm-3.53,27.13-4.51-4.31c-.44,2.12-1.83,3-2.86,4.25a22.82,22.82,0,0,1,3.63,3.62C398.18,279.78,398.76,278.19,400.6,277.26Zm-6.3,9,2.29,2.94a8.07,8.07,0,0,0,2-3.08,5.59,5.59,0,0,0-2.64-2.26Zm2,52.75,2.27-2.38-2.48-2.08-2.33,2Zm-1-44a1.39,1.39,0,0,0,1.5,1.32,1.26,1.26,0,0,0,1.37-1.41,1.23,1.23,0,0,0-1.34-1.2A1.36,1.36,0,0,0,395.28,295Z" transform="translate(-333.86 -217.93)" fill="#f66c61"/><path d="M431.25,363c-1.74,1.3-4.15,1.77-5,4.15-3.9-2.58-6.14-2.51-7.45.21a9,9,0,0,1,1.73.39,2.64,2.64,0,0,1,1.53,3.16c-.24,1.36-.92,2.37-2.52,2.34a8.35,8.35,0,0,1-5.35-2c-4.36-3.62-11-3-14.2,1.26s-2,10.32,2.86,13.68a27.49,27.49,0,0,0,5.06,2.34c-5,4-16.69,4.15-23,.2.83-.86,2-.93,2.94-1.37,4.4-2,7.26-6.18,6.82-10.16-.42-3.81-2.68-6.23-6.1-7.67a8.71,8.71,0,0,0-9.47,1.29,10.66,10.66,0,0,1-3,1.84c-2.55,1-4.65.48-5.28-1.22-.71-1.9.25-3.19,3.13-4.19-1.26-2.64-3.43-2.71-7.38-.14a6.56,6.56,0,0,0-3.32-3.09c-2.22-1.1-3.73-5.82-2.83-8.21.36-.95.94-1.75,2.14-1.59.92.12,1.14.61,1.11,2.23-.35.64-1.22-.1-1.55.6a.76.76,0,0,0,.47,1.08,1.45,1.45,0,0,0,2.13-1c.74-1.83-.07-3.21-2.67-4.47.62-1.1,1.29-2.17,1.84-3.31a6.41,6.41,0,0,0,.8-4.33c-.25-1.05-.64-2.17-2-1.9s-1.78,1.18-1.45,2.72c.68-.72.58-1.94,1.86-1.94,1.32,2,.68,3.92-.36,5.79-.76,1.37-1.79,2.6-2.48,4-1.78,3.62-.91,7,1.44,10.16-2.09,1.07-3.34,2.62-3.28,5a2.56,2.56,0,0,0,2,2.65,2.81,2.81,0,0,0,3.3-1.32c.52-.9.63-2-.39-2.59a1.28,1.28,0,0,0-2.07.64c-.06,1,.95,1,1.28,1.54a1.52,1.52,0,0,1-2.36.2c-.94-.84-.75-1.87-.24-2.88a2.66,2.66,0,0,1,2.88-1.68c2,.28,3,1.88,2.69,4.39-.4,3.44,1.43,6.22,4.57,7a6.74,6.74,0,0,0,4.55-.76c.6-.29,1.15-.66,1.93-1.1.42,1.69.31,3.33.91,4.84,1.21,3.05,3.66,4.76,6.52,4.44a6.25,6.25,0,0,0,5.29-5.35c.22-1.88-.38-3.52-2.26-4.18-1.57-.55-3.14-.39-3.83,1.7.67.69,1.83-.22,2.4.7s1,2.07.14,3.12a2.08,2.08,0,0,1-3,.35,3.64,3.64,0,0,1-1.71-2.77,5.21,5.21,0,0,1,3.09-5.45,5.1,5.1,0,0,1,6,1,6.66,6.66,0,0,1,.6,7.37,9.2,9.2,0,0,1-13.61,2.53,48,48,0,0,0-13.79-7.35c-8-2.71-9.24-5.8-5.92-13.56,2.93-6.85,2.3-13.72.08-20.59a7.81,7.81,0,0,1-.44-1.47c1.6,1.48,1.89,3.65,3,6,.49-2.35-.5-3.87-.88-5.53.82.21.53,1.39,1.55,1.51.3-2.46-1.53-4.19-2.4-6.71,1.89,1.86,2.27,4.09,3.64,6,.36-1.65-.71-2.74-.87-4.7l2.05,4.8c.76-.4.18-1.1.71-1.55,2.13,2.27,1.94,5.15,2,7.82,0,4.48.51,8.91.83,13.36.07,1,.46,2.32,1.42,2.34,2.42,0,4.71,2,7.26.45,1.37.94,2.82,1.71,4.54.79.61-.33,1,.11,1.39.41,1.58,1.18,3.45-.24,4.79.33,1.81.76,3.49-.16,4.76.17,3.9,1,7.51,1.4,11.41-.2,1.39.79,3,1.22,4.59-.06a.82.82,0,0,1,1-.12,3.8,3.8,0,0,0,4.8-.82,3.67,3.67,0,0,0,4.42-.11c.22-.16.66-.38.79-.28,2,1.53,4-.38,6-.23s2.36-1.57,2.63-3.25c.85-5.33.07-10.75.89-16.08a8.57,8.57,0,0,1,1.65-4.51c.82.31,0,1.19.85,1.59l1.8-4.24c.08,1.26-.78,2.31-.59,3.94,1.57-1.77,1.71-4.11,3.7-5.82-.9,2.5-2.34,4.31-2.58,6.62,1.17.07.85-1.17,1.66-1.45-.36,1.68-1.38,3.22-1,5.51,1.19-2.27,1.52-4.47,3-6.08a38.48,38.48,0,0,0-1.85,7.65c-.21,2.6-.63,5.21-.19,7.86-.55-1.87-1.86-3.24-2.91-4.78-2-2.88-2.25-4.93-1-7,1.42,0,1.17,1.23,1.44,2.12.64-1.42.37-2.47-.74-2.81-1.31-.4-1.92.35-2.25,1.52-.61,2.13.25,4,1.14,5.79.35.73.82,1.41,1.32,2.25-1.81.55-3,1.56-2.8,3.64a2,2,0,0,0,1.56,2c.79.16,1.28-.25,1.31-1.08-.07-.15-.1-.33-.2-.41-.61-.45-1.7-.47-1.46-1.65a1.26,1.26,0,0,1,1.28-1.05,2,2,0,0,1,2,1.47,7.17,7.17,0,0,1-.36,5.24c-.27.68-.93,1.21-.8,2Zm-42.5,25.87c4,1.88,6.1-.53,7.69-8.61.31,1,.53,1.75.79,2.51.73,2.12,1.41,4.28,3.13,5.87,1.06,1,2.19,1.45,3.68.18-1.75-2.24-4.58-3.25-5.73-6-1.06-2.51-1-5.25-1.94-7.83-.75,2.65-.81,5.32-1.86,7.83C393.39,385.62,390.44,386.49,388.75,388.89Zm7.66-4.75a14.43,14.43,0,0,1-2.83,5.54,5.45,5.45,0,0,0,5.71-.14C397.55,388,397.13,386,396.41,384.14ZM396.24,373l2-2.4L396.22,369c-.62.79-1.69.89-1.88,1.63Z" transform="translate(-333.86 -217.93)" fill="#f66c61"/><path d="M431.29,363c1.86-1,2-3,2.76-5.3,1,3.76,2.76,6.69,3.17,10.08a6,6,0,0,1-2.64,5.83,13.29,13.29,0,0,1-4,2,47.42,47.42,0,0,0-14.84,7.72,8.91,8.91,0,0,1-12.72-2,6.13,6.13,0,0,1,0-7.51c1.69-2.18,3.76-2.61,6.12-1.25s3.44,4.15,2.48,6.35c-.63,1.44-1.69,2.61-3.43,2.34-1.25-.19-1.5-1.45-1.45-2.48.09-1.67.94-2.67,3-1.91-.66-2.44-2.13-2.64-3.78-2.18a3.73,3.73,0,0,0-2.46,4.44c.78,3,3.62,5.35,6.27,5.19s5.86-3.33,6.24-6.5a26.23,26.23,0,0,0,0-2.94c1.37.55,2.37,1.43,3.62,1.79a6,6,0,0,0,7.71-6.54c-.21-1.49-.25-2.85,1-3.89a2.73,2.73,0,0,1,2.92-.58,3.15,3.15,0,0,1,2,2.53,1.94,1.94,0,0,1-.94,2.12c-.85.48-1.56,0-2.31-.62.68-.55,2.29,0,1.87-1.56a1.26,1.26,0,0,0-1.8-.85,1.91,1.91,0,0,0-1.16,2.58,2.74,2.74,0,0,0,2.57,1.85,2.37,2.37,0,0,0,2.55-1.42,4.25,4.25,0,0,0-1.68-5.49c-.67-.46-1.43-.74-1.18-1.76Z" transform="translate(-333.86 -217.93)" fill="#f66c61"/><path d="M442,252.35c-.94,1-2.43,1.27-3.5,2.87l4-1.3c-.95,1.62-2.79,1.9-3.73,3.48,1.9-.15,3-1.45,4.94-1.93l-2.72,4.08c1.86-.29,2.41-1.92,3.65-2.53.2,2.85-2.38,7.4-4.86,8.56-2.95,1.38-4.76,0-4.68-3.46-.43-.43-1-.3-1.47-.28-1.13.05-2.13-.17-2.6-1.31a2.86,2.86,0,0,1,.73-3.29C434.64,254.41,438.19,253.09,442,252.35Z" transform="translate(-333.86 -217.93)" fill="#f66c61"/><path d="M357.67,262.12c-.36,1.29.33,3.17-1.64,3.72-2.12.59-3.79-.3-5.14-1.92a14.18,14.18,0,0,1-3.16-7.2l3.5,3,.36-.35-2.73-4.1,5,2.45.27-.47-3.76-2.91.16-.31,3.91,1.32c-1.27-1.7-2.73-2.06-3.88-2.82,3-.42,9.84,3.12,11.12,5.72a2.41,2.41,0,0,1-2,3.6C359,261.91,358.35,261.67,357.67,262.12Z" transform="translate(-333.86 -217.93)" fill="#f66c61"/><path d="M438.13,242.39l5.93,5.13c-2.33.13-3.28-1.52-4.89-1.75.11,2.28,4.52,1.79,3.1,5A11.59,11.59,0,0,1,434,248a5.14,5.14,0,0,1-2.08-5.56c.55-1.93,2.26-2.42,4.2-2.5a3.23,3.23,0,0,0,.19-.79c0-1.1.1-2.18,1.28-2.62s2,.43,2.78,1.33a51.63,51.63,0,0,1,5.25,7.47c-1.23-1-1.76-2.76-3.76-3.8l2,4c-2-1.32-3.22-2.9-5-3.76Z" transform="translate(-333.86 -217.93)" fill="#f66c61"/><path d="M348.68,245.92l2.49-4.72c-2.09,1.21-2.75,2.94-4,4.14a42.32,42.32,0,0,1,6.22-8.48c1-1,2.53-.42,3,1a10.44,10.44,0,0,1,.22,2c1.95.2,3.91.6,4.37,2.79.49,2.36-.71,4.23-2.54,5.6a11.53,11.53,0,0,1-7.87,2.48c-1.29-3.14,2.88-2.77,3.15-4.92-1.61.07-2.58,1.7-4.14,1.79l-.48-.53,5.93-4.77-.71-.75C352.2,242.43,350.78,244.25,348.68,245.92Z" transform="translate(-333.86 -217.93)" fill="#f66c61"/><path d="M391.22,362.23a8.52,8.52,0,0,0,10.34.13c1.67,1.18,3.42,1.87,5.17.06,2.1,1.36,4,1.48,5.61-.89,1.83,1.76,3.69,2.41,5.38,0,2.59,1.77,5-1.14,7.4.07-.77,1.89-1.15,2-3.58.73-1,1.86-2.48,1.75-4.06.55-1.51.88-3,2.72-4.58,0-1.64,2-3.42,2.71-5.62,1.16-1.8,1.7-3.64,2.14-5.27.22a10.79,10.79,0,0,1-11.05.08c-2.7,1.59-2.7,1.59-5.2-.11-3.3,1-3.35,1-5.57-1-2.17,1.58-2.24,1.58-4.69-.18-1.41.66-3,1.66-4.1-.62-1.54.78-3.08,1.61-3.93-1.05,1.23.09,2.37.4,3.31-.52,1.2,1.87,2.64,1.93,4.2.77,2.36,2.1,2.85,2.11,5.51.07,1.5,2.22,3.33,1.74,5.33.35C387.45,364.1,389.3,363.93,391.22,362.23Z" transform="translate(-333.86 -217.93)" fill="#f66c61"/><path d="M392.61,341.9c1.31-.14,2.67-.57,3.67.81,2.27-1.51,4-.78,5.36,1.2,2.58-1.49,3-1.47,5.21.17,2.71-1.71,2.75-1.7,5.68.82,2.57-1.6,2.83-1.55,5,1,1.7-1.28,3.33-1.66,4.3.87l-.11.14c-1.38-.6-2.8-1.32-3.53.83h0c-2.27-2.82-3-3-5.72-1.26-3-2.58-3.22-2.6-5.78-.6-2.39-2.36-2.77-2.39-5.11-.44-2.81-2.36-3.43-2.34-5.08.17-2-2.37-2.94-2.38-5.28-.1-2.31-2.08-2.73-2-5.06.39-2.65-2.17-2.87-2.15-5.55.59-3-1.57-3.35-1.55-5.61.47-1.61-1-3.18-.94-4.43,1a3.37,3.37,0,0,0-3.45-.15c.69-2.37,2.18-1.56,3.6-1.19,1.24-1.44,2.55-2.88,4.39-.47,1.48-2,3-3.4,5.08-1.15,3.19-2.63,3.33-2.65,5.57-.91,2.87-1.65,3.05-1.65,5.22-.12a3.81,3.81,0,0,0,1.56-2Z" transform="translate(-333.86 -217.93)" fill="#f66c61"/><path d="M344.77,262.86c.68-1.85-.29-3.47,0-5.1.81-.49,1.5-.74,1.89.48.7,2.21,1.46,4.39,2.13,6.6a6.07,6.07,0,0,1,.16,1.78,2.26,2.26,0,0,1-1.29,2.19,2.14,2.14,0,0,1-2.45-.62c-.49-.45-.92-1-1.36-1.42-.84.19-.69.94-1,1.43-.51,1-1.07,1.85-2.36,1.71a2.55,2.55,0,0,1-2.28-2.14c-.91-3.54.34-6.69,1.69-9.83,0,1.64-1,3.14-.82,5.21,1.51-1.43,1.33-3.3,2.47-4.74v6.07c1.07-1.93.95-4.09,1.46-6.31C344.45,259.53,343.47,261.41,344.77,262.86Z" transform="translate(-333.86 -217.93)" fill="#f66c61"/><path d="M448,262.71c1.34-1.26.51-3,1.62-4.82l1.08,6.61c.68-2.06.31-4.12.59-6.23l1.8,4.59c.83-1.79-.3-3.26-.45-5.41a16.75,16.75,0,0,1,2,9.34c-.1,1.46-.56,2.71-2.11,3.07-1.74.4-2.32-.92-2.84-2.22a6.88,6.88,0,0,0-.45-.8c-.85,0-1,.82-1.48,1.21-.79.63-1.59,1.24-2.63.81s-1.34-1.54-1.31-2.63a7.49,7.49,0,0,1,.3-2c.6-1.92,1.3-3.81,1.89-5.74.34-1.12.83-1.55,1.92-.72C448,259.36,447.55,261,448,262.71Z" transform="translate(-333.86 -217.93)" fill="#f66c61"/><path d="M338.21,279.41a59.39,59.39,0,0,1-.27-9c2.52.16,3.5,1.64,3.77,3.75a10.85,10.85,0,0,1-.84,5.9,27.44,27.44,0,0,0-2.23,5.62c-3.78-2.81-4.07-9-2.37-15.36.75,2.94.37,6,1.29,8.84C337.58,279.25,337.81,279.27,338.21,279.41Z" transform="translate(-333.86 -217.93)" fill="#f66c61"/><path d="M456.7,270.42c.45,5.25,2.16,10.74-2.65,15.56a15.69,15.69,0,0,0-1.86-5.26,11.29,11.29,0,0,1-1.16-6.52c.33-2.16,1.34-3.54,3.69-3.91.72,3-.31,6-.13,9,.85-.91.84-.92,1.32-4.25C456.14,273.54,455.88,271.93,456.7,270.42Z" transform="translate(-333.86 -217.93)" fill="#f66c61"/><path d="M447,247a53,53,0,0,1,4.4,8.1,4.49,4.49,0,0,1-6.46-1.44C443.6,251.52,444.34,248.94,447,247Z" transform="translate(-333.86 -217.93)" fill="#f66c61"/><path d="M341.33,255.16a47.63,47.63,0,0,1,4.35-7.95c2.58,1.44,3.48,4,2.27,6.25C346.65,255.81,343.94,256.55,341.33,255.16Z" transform="translate(-333.86 -217.93)" fill="#f66c61"/><path d="M367.9,334.72c-1.4-2.18-2.73-4.42-5.78-5.48,2.18-.54,3.3.84,4.58,1.35.85-.56-1.26-1.72.91-1.78l-2.16-1.73,2.65.89c.27-.89-.73-.95-.75-1.63a1.63,1.63,0,0,1,.51-.22,5.17,5.17,0,0,1,4.51,2c1,1.17,1.36,2.36,0,3.53s-2.33.55-3.21-.58a5.77,5.77,0,0,1-.53-1.11c-1.8,1.74-1,3.28-.8,4.75Z" transform="translate(-333.86 -217.93)" fill="#f66c61"/><path d="M401.36,353.3a10.49,10.49,0,0,1-4.43.11c-.17-2.4-.47-4.67.29-6.91.28-.83.57-1.82,1.73-1.71a2.3,2.3,0,0,1,2,1.87A18.57,18.57,0,0,1,401.36,353.3Z" transform="translate(-333.86 -217.93)" fill="#f66c61"/><path d="M425.37,325c-2.67,0-5.13.36-6.43,3.12a3.21,3.21,0,0,0,.48,3.75c1.26,1.44,2.76,1.53,4.66.74a3.55,3.55,0,0,1-4,2.43,3.72,3.72,0,0,1-3.48-3.28c-.41-2.19-.32-4.36,1.66-5.93C420.46,324.08,422.87,324.19,425.37,325Z" transform="translate(-333.86 -217.93)" fill="#f66c61"/><path d="M425.72,333.36c-.43-1.08-.19-2.14-1-2.89-.82-.09-1,.69-1.49,1.12a1.86,1.86,0,0,1-2.77.16,2.07,2.07,0,0,1-.58-2.79c.93-1.95,3-2.94,5.74-2.65l-1.12,1.39c.83.55,1.4-.49,2.39-.08-2.17.54-.18,2-1.38,3.05,1.94-.43,3-2,5.16-1.4C428.36,330,427.08,331.65,425.72,333.36Z" transform="translate(-333.86 -217.93)" fill="#f66c61"/><path d="M368.66,332.56c2,.8,3.52.78,4.78-.69a3.25,3.25,0,0,0,.44-3.75c-1-2.16-2.57-2.93-6.2-3a5.86,5.86,0,0,1,7.93,8.25C373.92,335.79,370.83,335.61,368.66,332.56Z" transform="translate(-333.86 -217.93)" fill="#f66c61"/><path d="M355,316.06c-4.63-.57-7.62,1.2-7.82,4.33-.22,3.47,1.77,5,6.6,5.15-2.36,1.84-5.26,1.75-7.14-.24-2.09-2.21-1.89-5.52.49-8.28S352,313.89,355,316.06Z" transform="translate(-333.86 -217.93)" fill="#f66c61"/><path d="M439,325.62c5.15-.47,6.91-1.89,6.61-5.35-.26-3-3-4.6-7.5-4.32,2.36-1.95,4.72-1.77,7.05.52,2.71,2.67,3.22,6.25,1.22,8.61C444.61,327.22,441.74,327.43,439,325.62Z" transform="translate(-333.86 -217.93)" fill="#f66c61"/><path d="M390.21,353.63a8.74,8.74,0,0,1-4,.08,11.85,11.85,0,0,1,.53-6.59c.37-1,1.08-2.21,2.42-1.84a2.25,2.25,0,0,1,1.52,2.85A34.2,34.2,0,0,0,390.21,353.63Z" transform="translate(-333.86 -217.93)" fill="#f66c61"/><path d="M395.68,353.43a10.87,10.87,0,0,1-4.16.11,15.53,15.53,0,0,1,.29-6.42c.32-1.13.89-2.23,2.24-2.09s1.59,1.26,1.62,2.35C395.72,349.37,395.68,351.36,395.68,353.43Z" transform="translate(-333.86 -217.93)" fill="#f66c61"/><path d="M407.81,353.74c-.12-2.1-.25-3.87-.31-5.65,0-1.11.28-2.15,1.48-2.45s1.74.67,2.19,1.52a9.7,9.7,0,0,1,1,6.52C410.68,354.1,409.3,353.74,407.81,353.74Z" transform="translate(-333.86 -217.93)" fill="#f66c61"/><path d="M380.74,353.89A10.26,10.26,0,0,1,381.8,347c.42-.79,1-1.63,2.08-1.36a2.08,2.08,0,0,1,1.48,2.26,25.46,25.46,0,0,1-.62,5.82A12.48,12.48,0,0,1,380.74,353.89Z" transform="translate(-333.86 -217.93)" fill="#f66c61"/><path d="M406.75,353.31a7,7,0,0,1-4,.06c-.2-2.08-.42-4.06-.55-6a1.92,1.92,0,0,1,1.45-2c1.21-.32,2,.59,2.4,1.55A11.94,11.94,0,0,1,406.75,353.31Z" transform="translate(-333.86 -217.93)" fill="#f66c61"/><path d="M391.45,355.21c2.18-.6,2.18-.6,4.08-.18.17,1.79.37,3.63.53,5.47a2,2,0,0,1-1.11,2.26c-1.1.44-1.93-.33-2.41-1.17C391.42,359.65,391.37,357.49,391.45,355.21Z" transform="translate(-333.86 -217.93)" fill="#f66c61"/><path d="M397.05,355c1-.11,1.86-.24,2.75-.29a8,8,0,0,1,1.29.11c1,3.68-.11,7-2.7,8C396.9,361.25,396.44,358.75,397.05,355Z" transform="translate(-333.86 -217.93)" fill="#f66c61"/><path d="M434.16,321.84c-2.4,6.43,1.33,11.31,9.55,12.61a6.19,6.19,0,0,1-5.86-.06,11.49,11.49,0,0,1-6.33-8C431,324.22,432,322.6,434.16,321.84Z" transform="translate(-333.86 -217.93)" fill="#f66c61"/><path d="M412.31,355.38c-.14,2.48,0,4.85-1.94,6.4-.93.73-2.14.25-3-.64l.37-5.9A7.85,7.85,0,0,1,412.31,355.38Z" transform="translate(-333.86 -217.93)" fill="#f66c61"/><path d="M379.43,353.71a8,8,0,0,1-4,.07,12.1,12.1,0,0,1,.53-5.72,2,2,0,0,1,2.58-1.54c1.37.33,1.65,1.36,1.4,2.59A19.76,19.76,0,0,0,379.43,353.71Z" transform="translate(-333.86 -217.93)" fill="#f66c61"/><path d="M349.18,334.44c8.09-.62,12-6.9,9.64-12.62,1.9.31,2.44,1.67,2.6,3.15.58,5.24-6.23,11.18-11.33,9.92A5.28,5.28,0,0,1,349.18,334.44Z" transform="translate(-333.86 -217.93)" fill="#f66c61"/><path d="M417.5,353.76a9.16,9.16,0,0,1-3.86,0c-.23-1.65-.45-3.31-.69-5a1.81,1.81,0,0,1,1.34-2.24,1.91,1.91,0,0,1,2.52,1.25A11.76,11.76,0,0,1,417.5,353.76Z" transform="translate(-333.86 -217.93)" fill="#f66c61"/><path d="M384.73,355.22c.79,1.66.5,3.41.65,5.08.1,1.09-1,1.4-1.81,1.65a1.59,1.59,0,0,1-2-1,8.87,8.87,0,0,1-.84-5.66A9.14,9.14,0,0,1,384.73,355.22Z" transform="translate(-333.86 -217.93)" fill="#f66c61"/><path d="M402.71,355c1.38-.54,2.52.05,3.79-.07a13.23,13.23,0,0,1-.22,5.37,2.31,2.31,0,0,1-2.91,1.76c-1.68-.28-1.29-1.47-1.15-2.57C402.4,358,402.54,356.54,402.71,355Z" transform="translate(-333.86 -217.93)" fill="#f66c61"/><path d="M386.37,355.15a9.32,9.32,0,0,1,3.7,0c.2,1.62.37,3.15.6,4.68s-.65,2.05-1.82,2.34c-1.4.34-1.8-.63-2-1.74A20.78,20.78,0,0,1,386.37,355.15Z" transform="translate(-333.86 -217.93)" fill="#f66c61"/><path d="M415.61,362c-2.88-1.25-2.88-1.25-2-6.69a7.1,7.1,0,0,1,3.94.16C417.21,357.74,417.48,360.1,415.61,362Z" transform="translate(-333.86 -217.93)" fill="#f66c61"/><path d="M375.34,355.61a8.25,8.25,0,0,1,3.91-.17c.21,1.22.49,2.44.62,3.68a2.29,2.29,0,0,1-2,2.58c-1.3.3-1.54-.84-1.88-1.75A19.22,19.22,0,0,1,375.34,355.61Z" transform="translate(-333.86 -217.93)" fill="#f66c61"/><path d="M370.85,354a11.32,11.32,0,0,1,.51-5.13c.28-1,.92-1.78,2.14-1.46s1.09,1.26,1,2.17c-.16,1.4-.33,2.79-.5,4.21A2.92,2.92,0,0,1,370.85,354Z" transform="translate(-333.86 -217.93)" fill="#f66c61"/><path d="M418.23,347.73c2.75-.58,3.06-.38,3.54,2.36.15.88.28,1.77.35,2.66A6.91,6.91,0,0,1,422,354a3.92,3.92,0,0,1-3.13-.34l-.66-5.92Z" transform="translate(-333.86 -217.93)" fill="#f66c61"/><path d="M442.48,271.36c-1.27.08-2.24,1.16-3.55,1.08-1.11-3.39-.55-4.89,2.29-6,.29.64-.23,1.07-.4,1.57s-.8.92-.51,1.71c1-.32,1.31-1.36,2.14-2,.65.37.78,1.13,1.19,1.71l-1.13,1.88Z" transform="translate(-333.86 -217.93)" fill="#f66c61"/><path d="M351.41,266.28c2.88,1.37,3.44,2.77,2.54,6.21a6.47,6.47,0,0,1-4.74-2.86,3.8,3.8,0,0,1,1-1.85c1,.37,1.16,1.69,2.38,2C352.62,268.49,351.3,267.69,351.41,266.28Z" transform="translate(-333.86 -217.93)" fill="#f66c61"/><path d="M370.17,322.83c2.67-.11,5.31-.37,7.82,1,4.66,2.6,5.26,8.64.84,12.43,1.74-3.54,2.74-6.93.6-10.21S373.7,322.69,370.17,322.83Z" transform="translate(-333.86 -217.93)" fill="#f66c61"/><path d="M422.68,322.78c-9.85-.56-12.4,5.47-8.92,13.19a7.45,7.45,0,0,1-2.21-8.6C413.84,322.59,418.24,322.55,422.68,322.78Z" transform="translate(-333.86 -217.93)" fill="#f66c61"/><path d="M356.31,322.09a3.83,3.83,0,0,1,1.28-4.82,3.6,3.6,0,0,1,4.36-.62c2,1.21,2.36,3.28,2.18,5.47-.38-2.07-1.22-3.86-3.59-3.91C358.38,318.15,356.74,319.2,356.31,322.09Z" transform="translate(-333.86 -217.93)" fill="#f66c61"/><path d="M428.74,322.45c-.1-4.11,1.38-6.29,4-6.21s4.44,2.32,4,5.68c-.84-2.59-2.29-4-4.72-3.71C429.78,318.47,429.1,320.18,428.74,322.45Z" transform="translate(-333.86 -217.93)" fill="#f66c61"/><path d="M425.67,354.07a4.47,4.47,0,0,1-2.89,0c0-1.42,0-2.82,0-4.22,0-.66.1-1.22.81-1.4a1.35,1.35,0,0,1,1.65.84A8.43,8.43,0,0,1,425.67,354.07Z" transform="translate(-333.86 -217.93)" fill="#f66c61"/><path d="M370,353.94a3.33,3.33,0,0,1-2.83.15,6.25,6.25,0,0,1,.63-4.86c.34-.51.78-1,1.46-.78s.76.81.75,1.44C370,351.23,370,352.56,370,353.94Z" transform="translate(-333.86 -217.93)" fill="#f66c61"/><path d="M374,355.69c.2,1.38.4,2.62.57,3.87a1.41,1.41,0,0,1-1.08,1.7c-.82.23-1.21-.4-1.51-1a7.69,7.69,0,0,1-.79-4.53A4.06,4.06,0,0,1,374,355.69Z" transform="translate(-333.86 -217.93)" fill="#f66c61"/><path d="M418.9,355.71a4,4,0,0,1,2.84,0A8.15,8.15,0,0,1,421,360c-.28.68-.67,1.47-1.59,1.26s-1.23-1-1.08-1.91C418.54,358.18,418.71,357,418.9,355.71Z" transform="translate(-333.86 -217.93)" fill="#f66c61"/><path d="M369.83,368.31c-.61,4.33.54,5.81,4.53,6.17-1.54,1.57-3.79,1.38-5.41-.45S367.65,370.14,369.83,368.31Z" transform="translate(-333.86 -217.93)" fill="#f66c61"/><path d="M422.89,368.24c2.13,1.73,2.55,3.44,1.48,5.2-1.26,2.06-3.13,2.47-6.41,1,2-.08,3.55-.23,4.53-1.58S423.36,370,422.89,368.24Z" transform="translate(-333.86 -217.93)" fill="#f66c61"/><path d="M423,355.78a3.21,3.21,0,0,1,2.52-.08,4.42,4.42,0,0,1-.86,4.27,1.15,1.15,0,0,1-1.53.49,1.19,1.19,0,0,1-.64-1.47C422.71,357.92,422.85,356.83,423,355.78Z" transform="translate(-333.86 -217.93)" fill="#f66c61"/><path d="M369.85,355.64c.14,1,.23,1.95.42,2.88.15.74.12,1.36-.68,1.65a1.52,1.52,0,0,1-1.89-.8,5,5,0,0,1-.56-3.38C367.9,355.37,368.82,355.52,369.85,355.64Z" transform="translate(-333.86 -217.93)" fill="#f66c61"/><path d="M365,246.55l.14-.14,1.13-.37a4.21,4.21,0,0,1-1.11,4.51c-.67-.77.62-1.44-.18-2.2-1.11,1-1.58,3-3.77,2.91C361.79,249.1,364.11,248.37,365,246.55Z" transform="translate(-333.86 -217.93)" fill="#f66c61"/><path d="M427.48,245.9l.94,1.13c.6,1.63,2.57,2.2,3.18,4.08-2.25.23-2.71-1.75-3.76-2.89-.65.76.07,1.37,0,2C425.91,248.71,425.78,247,427.48,245.9Z" transform="translate(-333.86 -217.93)" fill="#f66c61"/><path d="M367.19,229.35c.73.26,1,1,1.47,1.49.39,1.47,2.46,2.05,2.08,4.36l-3.12-3.67c-.23,1.56,1.27,2.23,1.33,3.78C366.23,233.75,367.12,231.42,367.19,229.35Z" transform="translate(-333.86 -217.93)" fill="#f66c61"/><path d="M423.72,235.37c.14-1.56,1.5-2.19,1.49-3.87l-2.93,3.41c-.29-1.71.41-2.72,3.27-4.66C426,232.29,426.09,234.06,423.72,235.37Z" transform="translate(-333.86 -217.93)" fill="#f66c61"/><path d="M374.65,255.58c-1.65-1.81-3.79-2-4.78-3.83,1.22-.37,1.54,1.15,2.7,1.05,0-1-.93-1.45-1.28-2.22C373.18,251.36,374.29,252.75,374.65,255.58Z" transform="translate(-333.86 -217.93)" fill="#f66c61"/><path d="M420.2,252.8c1.17.1,1.49-1.37,2.7-1.14-.86,1.93-3,2.05-4.3,3.43-.24-2,.11-2.7,2.2-4.22C421,251.66,420.12,252,420.2,252.8Z" transform="translate(-333.86 -217.93)" fill="#f66c61"/><path d="M419.61,245.48c-.88-1.23-3.56,0-3.55-2.74C417.67,243.22,419.66,242.8,419.61,245.48Z" transform="translate(-333.86 -217.93)" fill="#f66c61"/><path d="M373,245.52c.13-2.65,2-2.35,3.52-2.67C376.38,244,376.38,244,373,245.52Z" transform="translate(-333.86 -217.93)" fill="#f66c61"/><path d="M367.61,320.06a4.74,4.74,0,0,0-2.55.74c1.17-1.55,1.17-1.55,3.48-1.83a3.37,3.37,0,0,1-.92,3.37C366.5,321.47,367.89,320.8,367.61,320.06Z" transform="translate(-333.86 -217.93)" fill="#f66c61"/><path d="M425.27,320c-.14.85,1,1.42,0,2.3a3.94,3.94,0,0,1-1.1-3.36,4,4,0,0,1,3.93,2.07A4.81,4.81,0,0,0,425.27,320Z" transform="translate(-333.86 -217.93)" fill="#f66c61"/><path d="M414.67,253.42c-.64,1.53-3.29.63-3.31,3-.32.18-.86.17-2.18-.34,1-.69,1.66-1.18,2.34-1.68C412.45,253.74,413.21,252.5,414.67,253.42Z" transform="translate(-333.86 -217.93)" fill="#f66c61"/><path d="M383,256.4c-1.64.71-1.42-.78-2-1.25a11.88,11.88,0,0,0-2.84-1.29C379.63,252.73,380.1,253,383,256.4Z" transform="translate(-333.86 -217.93)" fill="#f66c61"/><path d="M413.19,260.92c-.41,1.61-.75,2.9.24,4,.76-.21.09-1.12.77-1.45.73,1.09-.15,1.92-.25,3C411.86,264.34,411.7,263.31,413.19,260.92Z" transform="translate(-333.86 -217.93)" fill="#f66c61"/><path d="M379.08,266.45a3.11,3.11,0,0,1-.62-3c.86.17.22,1.05,1,1.23.77-.85.64-1.9.38-3.1C380.81,263.41,380.69,264.13,379.08,266.45Z" transform="translate(-333.86 -217.93)" fill="#f66c61"/><path d="M421.87,346.77c1.36-.34,2.92-1.65,3.72.88-1.09-1.43-2.84,1.37-3.83-.74Z" transform="translate(-333.86 -217.93)" fill="#f66c61"/><path d="M399.74,313.31c1.89,3.24,4.18,6.33,4.81,10.19.66,4-1.12,6.28-5.44,6.06,1.92-.61,3.13-1.3,3.59-2.86a8.38,8.38,0,0,0,0-4.2A73.75,73.75,0,0,0,399.74,313.31Z" transform="translate(-333.86 -217.93)" fill="#f66c61"/><path d="M393.5,329.57c-3.81.2-5.19-1.09-5.31-4.44a14.11,14.11,0,0,1,2.22-7.4,50.94,50.94,0,0,1,2.87-4.79c-.9,2.49-1.8,5-2.69,7.47a11.71,11.71,0,0,0-.78,3.93C389.81,327.35,390.41,328.3,393.5,329.57Z" transform="translate(-333.86 -217.93)" fill="#f66c61"/><path d="M367.94,311.81c-.47.36-1,.7-1.4,1.09-2.83,2.49-4.31,2.06-5.14-1.53-5.41.7-6.58-.33-5.36-4.71-5.07.07-5.12,0-3.2-5.39-1.54.15-2.77-.18-3.16-1.89-.48-2.1,1.1-2.85,2.57-3.63-3.06-2.93-2.1-5.07.9-5.76-1.11-4.18-.48-5.21,3.17-4.91.1-1.37-.75-3,.82-4s2.79-.62,4.27.49c.29-2.17-.1-4.35,2.3-5.14,1.66-.55,2.32.84,3.2,1.79,3.1-4.9,4.28-5.19,6.56-1.66,1.41-.72,1.9-2.68,3.77-2.84,2.35-.21,2.09,1.91,2.93,3.21,1.48-.61,2.61-2.09,4.39-1.87,2.69.34,1.38,2.45,1.56,3.84,1.29.5,2.83-1.09,3.74.65s-.32,2.82-1.11,4.29c1.84.2,3.42.64,3.76,2.74.26,1.66-1,2.11-2.25,2.82.88,1.1,2.44,1.49,2.33,3.17s-1.36,2-2.23,2.87c2.62,4.57,2.43,5.29-1.56,5.73.36,1.27,2.2,2.32.64,3.89-1.25,1.26-2.76.79-4.24.71,0,1.48,1.81,2.86,0,4.17a3.86,3.86,0,0,1-5.12,0c.23,2,0,3.55-1.76,4.43-2,1-3.12-.59-4.46-1.76-.84,1.57-1.55,3.17-3.69,2.59-1.76-.47-2.29-1.74-2.28-3.39,4.82,0,9.43-.71,13.26-3.93a20.12,20.12,0,0,0,7.32-19.23c-.75-5.14-3.36-9.41-8.54-9.92-7.46-.74-14.6.37-20.52,5.24-4.84,4-6.69,9.43-5.6,15.69,1,6,5.08,9.26,10.46,11.21C365.47,311.27,366.72,311.49,367.94,311.81Z" transform="translate(-333.86 -217.93)" fill="#f66c61"/><path d="M439.84,301.11c1.9,5.44,1.52,6-3.28,5.38.46,1.6,1.4,3.21-.38,4.59-1.63,1.27-3.25.42-5,.09-.34,1.13.27,2.62-1.32,3.06-2.12.59-3.26-1-4.81-2.25-.5,1.79-1.26,3.25-3.34,3.28-1.71,0-2.14-1.37-2.73-2.55-4.3,2.92-6.27,2.16-6.63-2.54a4.05,4.05,0,0,1-4.94-.3c-1.69-1.31,0-2.7.1-4.13-1.73.09-3.4.61-4.57-1.12-1-1.53.6-2.22,1.05-3.44-1.38-.43-3.33.19-3.52-2-.14-1.59,1.15-2.5,2-3.6-3.17-2.9-3.19-3.5-.09-6.2-1.26-.79-2.57-1.55-2-3.42s2-2,3.67-2.1c-.74-1.51-2.11-2.76-1.13-4.44.89-1.53,2.3-.38,3.56-.46.43-1.39-1.13-3.57,1.53-4,1.83-.28,3,1.09,4.54,1.87.87-1.19.54-3.5,3-3.21,1.78.21,2.29,2,3.84,2.87.77-1.4,1.46-3,3.62-2.1,1.63.71,1.83,2.41,2.67,3.71,1.21-.65,1.52-2.59,3.34-1.84,2.22.91,2.27,2.88,2.32,4.86,4.17-1.48,5.47-.5,5.17,3.74,3.78.06,4.56,1.31,3.05,4.92,4,1.61,3.54,3.45,1,5.78,1.66,1,3.2,2,2.3,4.34C442.29,301.31,441.24,301.32,439.84,301.11Zm-21.92-22.64c-9.2-.15-11.93,2.5-13.56,9.54-2.68,11.54,5.58,22.46,17.32,23.68,7.79.81,15.74-4.6,17.2-11.69a16.79,16.79,0,0,0-8.75-18.29A31.07,31.07,0,0,0,417.92,278.47Z" transform="translate(-333.86 -217.93)" fill="#f66c61"/><path d="M397.37,265.95a29.61,29.61,0,0,0-7.34-7.57c2.45-2.09,4.75-4.19,5.91-7.46a79.16,79.16,0,0,0,7.19,7.44A27.23,27.23,0,0,0,397.37,265.95Zm-1.28-11.47a12.08,12.08,0,0,1-3.45,4.17,31.21,31.21,0,0,1,4.5,4.24,8.94,8.94,0,0,1,3.6-4.13Z" transform="translate(-333.86 -217.93)" fill="#f66c61"/><path d="M365.21,294.72c0,1.25-1.44.34-1.89,1.23l4,.75c-1.94.36-3.6-.29-5.18,1.11h3.61c-.57,1.07-1.81,1.08-2.21,2.18,1.49,0,2.48-1.44,4.22-1.14-1.7,2.5-3.63,4.37-6.67,4.71-1.69.19-2.44-.55-1.85-2.21-1-.92-3.22-.92-1.33-3.28.84-1,.39-3.06,2.6-3.31a13.31,13.31,0,0,1,4.64-.06Z" transform="translate(-333.86 -217.93)" fill="#f66c61"/><path d="M378.71,283.91c1.54,3.21.67,5.06-3.91,8.27,0-.82,1.05-1.09,1-2-1-.12-1.21,1.21-2.12,1.3-.08-1.09.86-2,.38-3.54l-1.93,3.77c-.87-.69-.21-1.65-.69-2.34-.91.08-.57,1-1,1.44-1.2-.46-.2-5.12,1.47-6.84.55-.12.48.8,1.19.56.54-.66.94-1.75,2.2-1.71.88.27.67,1.28,1.24,1.81C377.37,284.85,377.75,283.81,378.71,283.91Z" transform="translate(-333.86 -217.93)" fill="#f66c61"/><path d="M367.71,300.47c0,1.13-.91,1.68-.83,2.71,1,.17.76-1.26,1.68-1.15,0,.93-.72,1.84,0,3l1.66-3.89c.47.92-.37,1.77.42,2.5,1-.72-.07-2.43,1.44-3,.52,1.51,1.16,3,1.54,4.54a2.23,2.23,0,0,1-2.52,2.71,2.08,2.08,0,0,0-1.63.38c-1,.62-1.84.55-2.35-.66a1.56,1.56,0,0,0-.48-.7c-2.71-1.75-2.76-2.14-.54-4.58C366.65,301.69,367.18,301.08,367.71,300.47Z" transform="translate(-333.86 -217.93)" fill="#f66c61"/><path d="M378,304.89l-.65,1.32c-1.76.76-3.64-2.2-3.7-5.57.91.33.92,1.73,2,1.81.35-.6-.28-.85-.29-1.33,1,.07,1.4,1.34,2.6,1.12,0-.84-1-1-1.14-1.73.53-.67,1.34.13,1.9-.46-.15-.81-1-.73-1.47-1.08s-1.34-.36-1.43-1.21c1.54-.46,6,.76,6.7,1.82.85,1.24.23,2.26-2,3C381.27,304.95,379.82,305.19,378,304.89Z" transform="translate(-333.86 -217.93)" fill="#f66c61"/><path d="M365.18,294.7c-1.35-1.55-3.77-2.26-3.87-4.72.28-.88,1.26-.62,1.6-1.24.16-3.13.21-3.17,3-2.52l.34-1.12c2.32,1.64,2.59,4.22,3.38,6.72-.91-.29-.69-1.41-1.61-1.59-.43.94.42,1.63.52,2.56-1.52-.37-1.53-2.22-2.85-3-.18,1.81,1.16,2.63,2,3.91-1.42,0-2-1.32-3.25-1.72.39,1.33,1.39,1.85,2.32,2.71h-1.56Z" transform="translate(-333.86 -217.93)" fill="#f66c61"/><path d="M382.23,289c.42.81-.53,1-.29,1.63.59.41,1.32-.27,2,.3,1.23,1.27-2,2.53.07,3.79-1.58,1.53-3.41,1.83-5.88,2.27l2.07-1.09c-1-.71-2-.19-3-.5,1.18-.68,2.7-.6,3.5-2.07-1.32-.12-2.3,1.19-3.58.68.38-.75,1.42-1.1,1.36-2.19-1.13,0-1.75,1.09-2.85,1.07C377.72,291.4,379.11,288.72,382.23,289Z" transform="translate(-333.86 -217.93)" fill="#f66c61"/><path d="M374.52,295.84c-.07,1.63-2.23,3.83-3.67,3.62-1.61-.24-2.16-1.51-2.22-2.91a3.28,3.28,0,0,1,3.2-3.09A2.57,2.57,0,0,1,374.52,295.84Z" transform="translate(-333.86 -217.93)" fill="#f66c61"/><path d="M418.87,288.45c-.66.94.11,1.68.07,2.61-.9.08-1.1-1-2-1-.09,1,.87,1.45,1.27,2.17-4.53-2.21-6.09-6.05-4-8.45l1.67,1c.93-.32.44-1.62,1.55-1.93,1.06,0,1.58.92,2.2,1.79.57.11.71-1.2,1.58-.44,1.29,1.12,1.79,4.12.92,7.63l-.43-2.54c-.87.72-.2,1.7-.89,2.42C419.79,290.89,419.75,289.48,418.87,288.45Z" transform="translate(-333.86 -217.93)" fill="#f66c61"/><path d="M429.37,300.17c-.56-1.16-1.66-1.32-2.5-2.25h3.86c-1.59-1.51-3.23-.9-4.76-1.13,1-.79,2.27-.49,3.39-.74-.18-1.06-1.22-.27-1.54-.86,1.42-.92,5.09-.73,6.18.35.25.25.61.72.52.92-.58,1.34.61,2,1.12,2.75-.17,1.33-1.29,1.46-2,1.89-.05,2.4-.58,2.82-2.8,2.31a8.33,8.33,0,0,1-5.62-4.61C426.71,298.62,427.71,300,429.37,300.17Z" transform="translate(-333.86 -217.93)" fill="#f66c61"/><path d="M420.7,300.47c1.05.89.76,2.16,1.28,3.11.68-.52.18-1.32.59-1.89,1,1,.75,2.48,1.79,3.37.63-1.29-.42-2.31-.44-3.75l1.88,2.25c0-1.59-.93-2.31-1.75-3.81a16.86,16.86,0,0,1,3.93,4.5,2,2,0,0,1,.31,1c-.07,1.33-4,3.55-5.13,2.89a2.1,2.1,0,0,0-1.63-.3c-1.28.24-2.9-1.33-2.59-2.57C419.36,303.7,420.07,302.17,420.7,300.47Z" transform="translate(-333.86 -217.93)" fill="#f66c61"/><path d="M417.1,297.47c-.71,1.6-2.29,1.45-3.15,2.44.72.9,1.62-.08,2.4.19-.2.92-1.43,1.07-1.53,2.08.95.43,1.33-.88,2.17-.7.27.28-.36.68.18.95,1.05-.13,1-1.56,2-1.83-.37,3.65-1.14,5-3.41,5.84-.82-.16-.43-1-1-1.54-1.48.14-3.27.36-2.63-2.31-1-.46-2.41-.42-2.32-2s1.21-1.8,2.28-2.11C413.65,298.06,415.14,297.18,417.1,297.47Z" transform="translate(-333.86 -217.93)" fill="#f66c61"/><path d="M425.6,295c1.1-1,2.14-1.41,2.46-2.7-1.25.21-1.79,1.48-3.08,1.5.85-1.3,2.21-2.25,2.3-4.24-1.38.79-1.46,2.37-2.72,2.9-.35-.81.51-1.45.32-2.3-.91-.09-.8.92-1.29,1.19-.82-.23,1-4.37,2.54-6,.81-.29.34,1.23,1.18.86,2.89-1.28,2.49.75,2.44,2.39.33.77,1.29.44,1.68,1C431.91,291.22,429.46,293.58,425.6,295Z" transform="translate(-333.86 -217.93)" fill="#f66c61"/><path d="M414.15,291.63c0,1.31,1.06,1.65,1.54,2.42-1.41.39-2.41-.66-3.82-.94.75,1.75,2.45,1.62,4,2.42h-3c.07,1,1,.77,1.47,1.31a10.48,10.48,0,0,1-5.46-1.79c1.68-1.48-.63-2.53-.32-3.72.69-1,1.53-.33,2.21-.56.52-.62-.45-.85-.33-1.35,2.08-.68,3.87.29,6,3.34Z" transform="translate(-333.86 -217.93)" fill="#f66c61"/><path d="M420.91,293.44a3.29,3.29,0,0,1,3.11,3.38c-.07,1.56-.83,2.6-2.45,2.63s-3.33-2.15-3.28-3.74C418.35,293.87,419.79,293.74,420.91,293.44Z" transform="translate(-333.86 -217.93)" fill="#f66c61"/></svg>