<svg id="Layer_1" data-name="Layer 1" xmlns="http://www.w3.org/2000/svg" viewBox="0 0 356.75 18.06"><title>stripes</title><rect x="356.71" y="5.46" width="0.04" height="3" fill="#91b08c"/><rect x="356.71" y="4" width="0.04" height="0.4" fill="#fff"/><rect x="356.71" y="3.4" width="0.04" height="0.6" fill="#fff"/><polygon points="356.71 13.56 356.71 13.6 356.75 13.6 356.75 12.6 356.71 12.6 356.71 13.45 356.71 13.56" fill="#fff"/><rect x="356.71" y="9.59" width="0.04" height="2" fill="#6d5484"/><rect y="8.46" width="356.71" height="1.13" fill="#f26c55"/><rect y="4.4" width="356.71" height="1.06" fill="#f26c55"/><rect y="11.59" width="356.71" height="1.01" fill="#f26c55"/><rect y="13.59" width="356.71" height="3.47" fill="#f3e09f"/><polygon points="0 0 0 2.85 0 3.4 356.71 3.4 356.75 3.4 356.75 0 0 0" fill="#fe9d12"/><polygon points="356.71 17.06 0 17.06 0 17.59 0 18.06 356.75 18.06 356.75 17.06 356.71 17.06" fill="#91b08c"/><rect y="5.46" width="356.71" height="3" fill="#91b08c"/><polygon points="0 3.4 0 4 0 4.4 356.71 4.4 356.71 4 356.71 3.4 0 3.4" fill="#fff"/><rect y="13.56" width="356.71" height="0.04" fill="#fff"/><polygon points="0 12.6 0 13.45 0 13.56 356.71 13.56 356.71 13.45 356.71 12.6 0 12.6" fill="#fff"/><rect y="9.59" width="356.71" height="2" fill="#6d5484"/></svg>