<svg id="Layer_1" data-name="Layer 1" xmlns="http://www.w3.org/2000/svg" viewBox="0 0 356.75 18.06"><title>stripes2</title><rect y="9.6" width="0.04" height="3" fill="#91b08c"/><rect y="13.66" width="0.04" height="0.4" fill="#fff"/><rect y="14.06" width="0.04" height="0.6" fill="#fff"/><polygon points="0.04 4.5 0.04 4.46 0 4.46 0 5.46 0.04 5.46 0.04 4.61 0.04 4.5" fill="#fff"/><rect y="6.47" width="0.04" height="2" fill="#6d5484"/><rect x="0.04" y="8.47" width="356.71" height="1.13" fill="#f26c55"/><rect x="0.04" y="12.6" width="356.71" height="1.06" fill="#f26c55"/><rect x="0.04" y="5.47" width="356.71" height="1.01" fill="#f26c55"/><rect x="0.04" y="1" width="356.71" height="3.47" fill="#f3e09f"/><polygon points="356.75 18.06 356.75 15.21 356.75 14.66 0.04 14.66 0 14.66 0 18.06 356.75 18.06" fill="#fe9d12"/><polygon points="0.04 1 356.75 1 356.75 0.47 356.75 0 0 0 0 1 0.04 1" fill="#91b08c"/><rect x="0.04" y="9.6" width="356.71" height="3" fill="#91b08c"/><polygon points="356.75 14.66 356.75 14.06 356.75 13.66 0.04 13.66 0.04 14.06 0.04 14.66 356.75 14.66" fill="#fff"/><rect x="0.04" y="4.47" width="356.71" height="0.04" fill="#fff"/><polygon points="356.75 5.46 356.75 4.61 356.75 4.5 0.04 4.5 0.04 4.61 0.04 5.46 356.75 5.46" fill="#fff"/><rect x="0.04" y="6.47" width="356.71" height="2" fill="#6d5484"/></svg>